{
.appVersion = "939";
copyright = "Copyright 2016 Jeremy Tribby. SIL OFL License v1.1.";
date = "2016-07-12 00:27:02 +0000";
designer = "Jeremy Tribby";
designerURL = "http://tribby.com/";
familyName = Barlow;
featurePrefixes = (
{
automatic = 1;
code = "languagesystem DFLT dflt;\012";
name = Languagesystems;
}
);
features = (
{
automatic = 1;
code = "sub hyphen hyphen by hyphen_hyphen.liga;\012";
name = liga;
}
);
fontMaster = (
{
alignmentZones = (
"{800, 16}",
"{700, 10}",
"{500, 9}",
"{0, -10}",
"{-200, -16}"
);
ascender = 800;
capHeight = 700;
customParameters = (
{
name = paramArea;
value = "488";
},
{
name = paramDepth;
value = "16";
},
{
name = paramOver;
value = "0";
}
);
descender = -200;
horizontalStems = (
22,
22
);
id = "262880E7-CFE1-4BDA-902E-E24798F3240A";
userData = {
GSCornerRadius = 8;
GSOffsetHorizontal = 11;
GSOffsetMakeStroke = 1;
GSOffsetPosition = 0.2;
GSOffsetVertical = 10;
noodleExtremesAndInflections = 1;
noodleRemoveOverlap = 1;
noodleThickness = "22.0";
};
verticalStems = (
21,
21
);
visible = 1;
weight = Light;
weightValue = 23;
xHeight = 500;
},
{
alignmentZones = (
"{800, 16}",
"{700, 13}",
"{520, 13}",
"{0, -13}",
"{-200, -12}"
);
ascender = 800;
capHeight = 700;
customParameters = (
{
name = paramArea;
value = "488";
},
{
name = paramDepth;
value = "16";
},
{
name = paramOver;
value = "0";
}
);
descender = -200;
horizontalStems = (
188,
188
);
id = "4E2227F3-52E4-4048-A8EE-327B486EF0A4";
userData = {
GSCornerRadius = 8;
GSOffsetHorizontal = 104;
GSOffsetMakeStroke = 1;
GSOffsetVertical = 95;
noodleExtremesAndInflections = 1;
noodleRemoveOverlap = 1;
noodleThickness = "22.0";
};
verticalStems = (
170,
161
);
visible = 1;
weight = Bold;
weightValue = 188;
xHeight = 520;
}
);
glyphs = (
{
glyphname = A;
lastChange = "2017-01-14 20:55:16 +0000";
layers = (
{
layerId = "262880E7-CFE1-4BDA-902E-E24798F3240A";
paths = (
{
closed = 1;
nodes = (
"46 0 LINE",
"237 658 LINE",
"428 0 LINE",
"450 0 LINE",
"247 700 LINE",
"225 700 LINE",
"24 0 LINE"
);
},
{
closed = 1;
nodes = (
"395 155 LINE",
"395 176 LINE",
"82 176 LINE",
"82 155 LINE"
);
}
);
width = 474;
},
{
layerId = "4E2227F3-52E4-4048-A8EE-327B486EF0A4";
paths = (
{
closed = 1;
nodes = (
"194 0 LINE",
"258 458 LINE",
"308 0 LINE",
"501 0 LINE",
"359 700 LINE",
"148 700 LINE",
"6 0 LINE"
);
},
{
closed = 1;
nodes = (
"382 95 LINE",
"382 239 LINE",
"121 239 LINE",
"121 95 LINE"
);
}
);
width = 507;
}
);
leftKerningGroup = A;
rightKerningGroup = A;
unicode = 0041;
},
{
glyphname = B;
lastChange = "2017-01-14 20:55:16 +0000";
layers = (
{
layerId = "262880E7-CFE1-4BDA-902E-E24798F3240A";
paths = (
{
closed = 1;
nodes = (
"86 679 LINE",
"248 679 LINE SMOOTH",
"351 679 OFFCURVE",
"420 617 OFFCURVE",
"420 523 CURVE SMOOTH",
"420 433 OFFCURVE",
"351 373 OFFCURVE",
"248 373 CURVE SMOOTH",
"86 373 LINE"
);
},
{
closed = 1;
nodes = (
"248 352 LINE SMOOTH",
"364 352 OFFCURVE",
"442 421 OFFCURVE",
"442 523 CURVE SMOOTH",
"442 629 OFFCURVE",
"364 700 OFFCURVE",
"248 700 CURVE SMOOTH",
"64 700 LINE",
"64 352 LINE"
);
},
{
closed = 1;
nodes = (
"86 352 LINE",
"248 352 LINE SMOOTH",
"351 352 OFFCURVE",
"421 285 OFFCURVE",
"421 186 CURVE SMOOTH",
"421 88 OFFCURVE",
"351 22 OFFCURVE",
"248 22 CURVE SMOOTH",
"86 22 LINE"
);
},
{
closed = 1;
nodes = (
"248 0 LINE SMOOTH",
"364 0 OFFCURVE",
"443 74 OFFCURVE",
"443 186 CURVE SMOOTH",
"443 299 OFFCURVE",
"365 373 OFFCURVE",
"248 373 CURVE SMOOTH",
"64 373 LINE",
"64 0 LINE"
);
}
);
width = 483;
},
{
layerId = "4E2227F3-52E4-4048-A8EE-327B486EF0A4";
paths = (
{
closed = 1;
nodes = (
"204 539 LINE",
"213 539 LINE",
"239 539 OFFCURVE",
"252 520 OFFCURVE",
"252 483 CURVE SMOOTH",
"252 447 OFFCURVE",
"239 427 OFFCURVE",
"213 427 CURVE",
"204 427 LINE"
);
},
{
closed = 1;
nodes = (
"175 319 LINE SMOOTH",
"350 319 OFFCURVE",
"436 369 OFFCURVE",
"436 503 CURVE SMOOTH",
"436 640 OFFCURVE",
"345 700 OFFCURVE",
"210 700 CURVE",
"16 700 LINE",
"16 319 LINE"
);
},
{
closed = 1;
nodes = (
"204 293 LINE",
"223 293 LINE SMOOTH",
"244 293 OFFCURVE",
"259 266 OFFCURVE",
"259 225 CURVE SMOOTH",
"259 182 OFFCURVE",
"243 161 OFFCURVE",
"222 161 CURVE SMOOTH",
"204 161 LINE"
);
},
{
closed = 1;
nodes = (
"237 0 LINE SMOOTH",
"352 0 OFFCURVE",
"447 65 OFFCURVE",
"447 201 CURVE SMOOTH",
"447 368 OFFCURVE",
"304 418 OFFCURVE",
"173 418 CURVE",
"16 418 LINE",
"16 0 LINE"
);
}
);
width = 457;
}
);
leftKerningGroup = H;
rightKerningGroup = B;
unicode = 0042;
},
{
glyphname = C;
lastChange = "2017-01-14 20:55:16 +0000";
layers = (
{
layerId = "262880E7-CFE1-4BDA-902E-E24798F3240A";
paths = (
{
closed = 1;
nodes = (
"364 -9 OFFCURVE",
"441 56 OFFCURVE",
"441 154 CURVE SMOOTH",
"441 179 LINE",
"419 179 LINE",
"419 152 LINE SMOOTH",
"419 68 OFFCURVE",
"351 12 OFFCURVE",
"252 12 CURVE SMOOTH",
"151 12 OFFCURVE",
"86 68 OFFCURVE",
"86 152 CURVE SMOOTH",
"86 548 LINE SMOOTH",
"86 632 OFFCURVE",
"151 688 OFFCURVE",
"252 688 CURVE SMOOTH",
"351 688 OFFCURVE",
"419 632 OFFCURVE",
"419 548 CURVE SMOOTH",
"419 520 LINE",
"441 520 LINE",
"441 546 LINE SMOOTH",
"441 644 OFFCURVE",
"364 709 OFFCURVE",
"252 709 CURVE SMOOTH",
"138 709 OFFCURVE",
"64 644 OFFCURVE",
"64 546 CURVE SMOOTH",
"64 154 LINE SMOOTH",
"64 56 OFFCURVE",
"138 -9 OFFCURVE",
"252 -9 CURVE SMOOTH"
);
}
);
width = 481;
},
{
layerId = "4E2227F3-52E4-4048-A8EE-327B486EF0A4";
paths = (
{
closed = 1;
nodes = (
"358 -11 OFFCURVE",
"443 75 OFFCURVE",
"443 205 CURVE SMOOTH",
"443 231 LINE",
"255 231 LINE",
"255 189 LINE SMOOTH",
"255 166 OFFCURVE",
"245 150 OFFCURVE",
"229 150 CURVE SMOOTH",
"214 150 OFFCURVE",
"204 166 OFFCURVE",
"204 189 CURVE SMOOTH",
"204 513 LINE SMOOTH",
"204 536 OFFCURVE",
"214 552 OFFCURVE",
"229 552 CURVE SMOOTH",
"245 552 OFFCURVE",
"255 536 OFFCURVE",
"255 513 CURVE SMOOTH",
"255 470 LINE",
"443 470 LINE",
"443 497 LINE SMOOTH",
"443 627 OFFCURVE",
"358 713 OFFCURVE",
"229 713 CURVE SMOOTH",
"102 713 OFFCURVE",
"16 627 OFFCURVE",
"16 497 CURVE SMOOTH",
"16 205 LINE SMOOTH",
"16 75 OFFCURVE",
"102 -11 OFFCURVE",
"229 -11 CURVE SMOOTH"
);
}
);
width = 453;
}
);
leftKerningGroup = O;
rightKerningGroup = C;
unicode = 0043;
},
{
glyphname = D;
lastChange = "2017-01-14 20:55:16 +0000";
layers = (
{
layerId = "262880E7-CFE1-4BDA-902E-E24798F3240A";
paths = (
{
closed = 1;
nodes = (
"253 0 LINE SMOOTH",
"366 0 OFFCURVE",
"436 68 OFFCURVE",
"436 180 CURVE SMOOTH",
"436 520 LINE SMOOTH",
"436 632 OFFCURVE",
"366 700 OFFCURVE",
"253 700 CURVE SMOOTH",
"72 700 LINE",
"72 0 LINE"
);
},
{
closed = 1;
nodes = (
"94 679 LINE",
"255 679 LINE SMOOTH",
"353 679 OFFCURVE",
"414 619 OFFCURVE",
"414 520 CURVE SMOOTH",
"414 179 LINE SMOOTH",
"414 81 OFFCURVE",
"353 21 OFFCURVE",
"255 21 CURVE SMOOTH",
"94 21 LINE"
);
}
);
width = 492;
},
{
layerId = "4E2227F3-52E4-4048-A8EE-327B486EF0A4";
paths = (
{
closed = 1;
nodes = (
"225 0 LINE SMOOTH",
"355 0 OFFCURVE",
"442 80 OFFCURVE",
"442 200 CURVE SMOOTH",
"442 500 LINE SMOOTH",
"442 620 OFFCURVE",
"355 700 OFFCURVE",
"225 700 CURVE SMOOTH",
"18 700 LINE",
"18 0 LINE"
);
},
{
closed = 1;
nodes = (
"206 530 LINE",
"220 530 LINE SMOOTH",
"240 530 OFFCURVE",
"254 510 OFFCURVE",
"254 479 CURVE",
"254 222 LINE",
"252 192 OFFCURVE",
"238 172 OFFCURVE",
"220 171 CURVE SMOOTH",
"206 170 LINE"
);
}
);
width = 456;
}
);
leftKerningGroup = H;
rightKerningGroup = B;
unicode = 0044;
},
{
glyphname = E;
lastChange = "2017-01-14 20:55:16 +0000";
layers = (
{
layerId = "262880E7-CFE1-4BDA-902E-E24798F3240A";
paths = (
{
closed = 1;
nodes = (
"434 0 LINE",
"434 21 LINE",
"94 21 LINE",
"94 679 LINE",
"434 679 LINE",
"434 700 LINE",
"72 700 LINE",
"72 0 LINE"
);
},
{
closed = 1;
nodes = (
"330 340 LINE",
"330 361 LINE",
"83 361 LINE",
"83 340 LINE"
);
}
);
width = 466;
},
{
layerId = "4E2227F3-52E4-4048-A8EE-327B486EF0A4";
paths = (
{
closed = 1;
nodes = (
"408 0 LINE",
"408 170 LINE",
"206 170 LINE",
"206 530 LINE",
"408 530 LINE",
"408 700 LINE",
"18 700 LINE",
"18 0 LINE"
);
},
{
closed = 1;
nodes = (
"319 265 LINE",
"319 435 LINE",
"94 435 LINE",
"94 265 LINE"
);
}
);
width = 416;
}
);
leftKerningGroup = H;
unicode = 0045;
},
{
glyphname = F;
lastChange = "2017-01-14 20:55:16 +0000";
layers = (
{
layerId = "262880E7-CFE1-4BDA-902E-E24798F3240A";
paths = (
{
closed = 1;
nodes = (
"94 0 LINE",
"94 679 LINE",
"433 679 LINE",
"433 700 LINE",
"72 700 LINE",
"72 0 LINE"
);
},
{
closed = 1;
nodes = (
"329 340 LINE",
"329 361 LINE",
"83 361 LINE",
"83 340 LINE"
);
}
);
width = 457;
},
{
layerId = "4E2227F3-52E4-4048-A8EE-327B486EF0A4";
paths = (
{
closed = 1;
nodes = (
"206 0 LINE",
"206 530 LINE",
"408 530 LINE",
"408 700 LINE",
"18 700 LINE",
"18 0 LINE"
);
},
{
closed = 1;
nodes = (
"319 265 LINE",
"319 435 LINE",
"94 435 LINE",
"94 265 LINE"
);
}
);
width = 414;
}
);
leftKerningGroup = H;
unicode = 0046;
},
{
glyphname = G;
lastChange = "2017-01-14 20:55:16 +0000";
layers = (
{
layerId = "262880E7-CFE1-4BDA-902E-E24798F3240A";
paths = (
{
closed = 1;
nodes = (
"364 -9 OFFCURVE",
"440 56 OFFCURVE",
"440 154 CURVE SMOOTH",
"440 361 LINE",
"261 361 LINE",
"261 340 LINE",
"418 340 LINE",
"418 152 LINE SMOOTH",
"418 68 OFFCURVE",
"351 12 OFFCURVE",
"252 12 CURVE SMOOTH",
"151 12 OFFCURVE",
"86 68 OFFCURVE",
"86 152 CURVE SMOOTH",
"86 548 LINE SMOOTH",
"86 632 OFFCURVE",
"151 688 OFFCURVE",
"252 688 CURVE SMOOTH",
"351 688 OFFCURVE",
"418 632 OFFCURVE",
"418 548 CURVE SMOOTH",
"418 500 LINE",
"440 500 LINE",
"440 546 LINE SMOOTH",
"440 644 OFFCURVE",
"364 709 OFFCURVE",
"252 709 CURVE SMOOTH",
"138 709 OFFCURVE",
"64 644 OFFCURVE",
"64 546 CURVE SMOOTH",
"64 154 LINE SMOOTH",
"64 56 OFFCURVE",
"138 -9 OFFCURVE",
"252 -9 CURVE SMOOTH"
);
}
);
width = 480;
},
{
layerId = "4E2227F3-52E4-4048-A8EE-327B486EF0A4";
paths = (
{
closed = 1;
nodes = (
"354 -11 OFFCURVE",
"439 72 OFFCURVE",
"439 196 CURVE SMOOTH",
"439 414 LINE",
"229 414 LINE",
"229 269 LINE",
"251 269 LINE",
"251 192 LINE SMOOTH",
"251 167 OFFCURVE",
"241 150 OFFCURVE",
"227 150 CURVE SMOOTH",
"214 150 OFFCURVE",
"204 167 OFFCURVE",
"204 192 CURVE SMOOTH",
"204 509 LINE SMOOTH",
"204 534 OFFCURVE",
"214 551 OFFCURVE",
"227 551 CURVE SMOOTH",
"241 551 OFFCURVE",
"251 534 OFFCURVE",
"251 509 CURVE SMOOTH",
"251 455 LINE",
"439 455 LINE",
"439 503 LINE SMOOTH",
"439 628 OFFCURVE",
"354 712 OFFCURVE",
"227 712 CURVE SMOOTH",
"101 712 OFFCURVE",
"16 629 OFFCURVE",
"16 505 CURVE SMOOTH",
"16 196 LINE SMOOTH",
"16 72 OFFCURVE",
"101 -11 OFFCURVE",
"227 -11 CURVE SMOOTH"
);
}
);
width = 449;
}
);
leftKerningGroup = O;
rightKerningGroup = G;
unicode = 0047;
},
{
glyphname = H;
lastChange = "2017-01-14 20:55:16 +0000";
layers = (
{
layerId = "262880E7-CFE1-4BDA-902E-E24798F3240A";
paths = (
{
closed = 1;
nodes = (
"435 0 LINE",
"435 700 LINE",
"413 700 LINE",
"413 0 LINE"
);
},
{
closed = 1;
nodes = (
"94 0 LINE",
"94 700 LINE",
"72 700 LINE",
"72 0 LINE"
);
},
{
closed = 1;
nodes = (
"418 340 LINE",
"418 361 LINE",
"89 361 LINE",
"89 340 LINE"
);
}
);
width = 507;
},
{
layerId = "4E2227F3-52E4-4048-A8EE-327B486EF0A4";
paths = (
{
closed = 1;
nodes = (
"432 0 LINE",
"432 700 LINE",
"244 700 LINE",
"244 0 LINE"
);
},
{
closed = 1;
nodes = (
"206 0 LINE",
"206 700 LINE",
"18 700 LINE",
"18 0 LINE"
);
},
{
closed = 1;
nodes = (
"339 265 LINE",
"339 435 LINE",
"114 435 LINE",
"114 265 LINE"
);
}
);
width = 450;
}
);
unicode = 0048;
},
{
glyphname = I;
lastChange = "2017-01-14 20:55:16 +0000";
layers = (
{
layerId = "262880E7-CFE1-4BDA-902E-E24798F3240A";
paths = (
{
closed = 1;
nodes = (
"94 0 LINE",
"94 700 LINE",
"72 700 LINE",
"72 0 LINE"
);
}
);
width = 166;
},
{
layerId = "4E2227F3-52E4-4048-A8EE-327B486EF0A4";
paths = (
{
closed = 1;
nodes = (
"206 0 LINE",
"206 700 LINE",
"18 700 LINE",
"18 0 LINE"
);
}
);
width = 224;
}
);
unicode = 0049;
},
{
glyphname = J;
lastChange = "2017-01-14 20:55:16 +0000";
layers = (
{
layerId = "262880E7-CFE1-4BDA-902E-E24798F3240A";
paths = (
{
closed = 1;
nodes = (
"314 -9 OFFCURVE",
"386 56 OFFCURVE",
"386 154 CURVE SMOOTH",
"386 700 LINE",
"364 700 LINE",
"364 152 LINE SMOOTH",
"364 68 OFFCURVE",
"300 12 OFFCURVE",
"205 12 CURVE SMOOTH",
"110 12 OFFCURVE",
"46 68 OFFCURVE",
"46 152 CURVE SMOOTH",
"46 251 LINE",
"24 251 LINE",
"24 154 LINE SMOOTH",
"24 56 OFFCURVE",
"96 -9 OFFCURVE",
"205 -9 CURVE SMOOTH"
);
}
);
width = 458;
},
{
layerId = "4E2227F3-52E4-4048-A8EE-327B486EF0A4";
paths = (
{
closed = 1;
nodes = (
"346 -8 OFFCURVE",
"431 72 OFFCURVE",
"431 192 CURVE SMOOTH",
"431 700 LINE",
"243 700 LINE",
"243 190 LINE SMOOTH",
"243 168 OFFCURVE",
"233 153 OFFCURVE",
"218 153 CURVE SMOOTH",
"204 153 OFFCURVE",
"194 168 OFFCURVE",
"194 190 CURVE SMOOTH",
"194 265 LINE",
"6 265 LINE",
"6 192 LINE SMOOTH",
"6 72 OFFCURVE",
"91 -8 OFFCURVE",
"218 -8 CURVE SMOOTH"
);
}
);
width = 449;
}
);
leftKerningGroup = J;
rightKerningGroup = U;
unicode = 004A;
},
{
glyphname = K;
lastChange = "2017-01-14 20:55:16 +0000";
layers = (
{
layerId = "262880E7-CFE1-4BDA-902E-E24798F3240A";
paths = (
{
closed = 1;
nodes = (
"94 0 LINE",
"94 274 LINE",
"208 406 LINE",
"450 0 LINE",
"478 0 LINE",
"224 427 LINE",
"456 700 LINE",
"427 700 LINE",
"94 308 LINE",
"94 700 LINE",
"72 700 LINE",
"72 0 LINE"
);
}
);
width = 478;
},
{
layerId = "4E2227F3-52E4-4048-A8EE-327B486EF0A4";
paths = (
{
closed = 1;
nodes = (
"206 0 LINE",
"206 183 LINE",
"234 246 LINE",
"288 -4 LINE",
"486 0 LINE",
"356 392 LINE",
"489 700 LINE",
"291 700 LINE",
"206 447 LINE",
"206 700 LINE",
"18 700 LINE",
"18 0 LINE"
);
}
);
width = 489;
}
);
rightKerningGroup = K;
unicode = 004B;
},
{
glyphname = L;
lastChange = "2017-01-14 20:55:16 +0000";
layers = (
{
layerId = "262880E7-CFE1-4BDA-902E-E24798F3240A";
paths = (
{
closed = 1;
nodes = (
"420 0 LINE",
"420 21 LINE",
"94 21 LINE",
"94 700 LINE",
"72 700 LINE",
"72 0 LINE"
);
}
);
width = 436;
},
{
layerId = "4E2227F3-52E4-4048-A8EE-327B486EF0A4";
paths = (
{
closed = 1;
nodes = (
"417 0 LINE",
"417 170 LINE",
"206 170 LINE",
"206 700 LINE",
"18 700 LINE",
"18 0 LINE"
);
}
);
width = 421;
}
);
rightKerningGroup = L;
unicode = 004C;
},
{
color = 3;
glyphname = M;
lastChange = "2017-01-14 20:55:16 +0000";
layers = (
{
layerId = "262880E7-CFE1-4BDA-902E-E24798F3240A";
paths = (
{
closed = 1;
nodes = (
"86 0 LINE",
"86 651 LINE",
"264 327 LINE",
"444 651 LINE",
"444 0 LINE",
"466 0 LINE",
"466 700 LINE",
"444 700 LINE",
"264 372 LINE",
"86 700 LINE",
"64 700 LINE",
"64 0 LINE"
);
}
);
width = 530;
},
{
layerId = "4E2227F3-52E4-4048-A8EE-327B486EF0A4";
paths = (
{
closed = 1;
nodes = (
"204 0 LINE",
"204 434 LINE",
"258 296 LINE",
"312 431 LINE",
"312 0 LINE",
"500 0 LINE",
"500 700 LINE",
"317 700 LINE",
"258 562 LINE",
"199 700 LINE",
"16 700 LINE",
"16 0 LINE"
);
}
);
width = 516;
},
{
associatedMasterId = "4E2227F3-52E4-4048-A8EE-327B486EF0A4";
layerId = "C618EEF0-F381-433B-B25F-2EDAE517ED4C";
name = "{100,100}";
paths = (
{
closed = 1;
nodes = (
"146 0 LINE",
"146 510 LINE",
"264 282 LINE",
"382 508 LINE",
"382 0 LINE",
"482 0 LINE",
"482 700 LINE",
"385 700 LINE",
"264 459 LINE",
"143 700 LINE",
"46 700 LINE",
"46 0 LINE"
);
}
);
width = 528;
}
);
unicode = 004D;
},
{
color = 3;
glyphname = N;
lastChange = "2017-01-14 20:55:16 +0000";
layers = (
{
layerId = "262880E7-CFE1-4BDA-902E-E24798F3240A";
paths = (
{
closed = 1;
nodes = (
"86 0 LINE",
"86 648 LINE",
"414 0 LINE",
"436 0 LINE",
"436 700 LINE",
"414 700 LINE",
"414 52 LINE",
"86 700 LINE",
"64 700 LINE",
"64 0 LINE"
);
}
);
width = 500;
},
{
layerId = "4E2227F3-52E4-4048-A8EE-327B486EF0A4";
paths = (
{
closed = 1;
nodes = (
"202 0 LINE",
"200 346 LINE",
"275 0 LINE",
"481 0 LINE",
"481 700 LINE",
"295 700 LINE",
"297 356 LINE",
"221 700 LINE",
"16 700 LINE",
"16 0 LINE"
);
}
);
width = 497;
},
{
associatedMasterId = "4E2227F3-52E4-4048-A8EE-327B486EF0A4";
layerId = "AF700569-CAED-4344-924C-FF7EDA896D2F";
name = "{100,100}";
paths = (
{
closed = 1;
nodes = (
"146 0 LINE",
"145 464 LINE",
"341 0 LINE",
"439 0 LINE",
"439 700 LINE",
"339 700 LINE",
"339 229 LINE",
"144 700 LINE",
"46 700 LINE",
"46 0 LINE"
);
}
);
width = 485;
}
);
leftKerningGroup = H;
rightKerningGroup = H;
unicode = 004E;
},
{
glyphname = O;
lastChange = "2017-01-14 20:55:16 +0000";
layers = (
{
layerId = "262880E7-CFE1-4BDA-902E-E24798F3240A";
paths = (
{
closed = 1;
nodes = (
"353 -9 OFFCURVE",
"431 56 OFFCURVE",
"431 154 CURVE SMOOTH",
"431 546 LINE SMOOTH",
"431 644 OFFCURVE",
"353 709 OFFCURVE",
"238 709 CURVE SMOOTH",
"124 709 OFFCURVE",
"48 644 OFFCURVE",
"48 546 CURVE SMOOTH",
"48 154 LINE SMOOTH",
"48 56 OFFCURVE",
"124 -9 OFFCURVE",
"238 -9 CURVE SMOOTH"
);
},
{
closed = 1;
nodes = (
"137 12 OFFCURVE",
"70 68 OFFCURVE",
"70 152 CURVE SMOOTH",
"70 548 LINE SMOOTH",
"70 632 OFFCURVE",
"137 688 OFFCURVE",
"238 688 CURVE SMOOTH",
"342 688 OFFCURVE",
"409 632 OFFCURVE",
"409 548 CURVE SMOOTH",
"409 152 LINE SMOOTH",
"409 68 OFFCURVE",
"342 12 OFFCURVE",
"238 12 CURVE SMOOTH"
);
}
);
width = 479;
},
{
layerId = "4E2227F3-52E4-4048-A8EE-327B486EF0A4";
paths = (
{
closed = 1;
nodes = (
"354 -12 OFFCURVE",
"439 75 OFFCURVE",
"439 206 CURVE SMOOTH",
"439 494 LINE SMOOTH",
"439 625 OFFCURVE",
"354 712 OFFCURVE",
"225 712 CURVE SMOOTH",
"97 712 OFFCURVE",
"12 625 OFFCURVE",
"12 494 CURVE SMOOTH",
"12 206 LINE SMOOTH",
"12 75 OFFCURVE",
"97 -12 OFFCURVE",
"225 -12 CURVE SMOOTH"
);
},
{
closed = 1;
nodes = (
"210 149 OFFCURVE",
"200 167 OFFCURVE",
"200 195 CURVE SMOOTH",
"200 505 LINE SMOOTH",
"200 533 OFFCURVE",
"210 551 OFFCURVE",
"225 551 CURVE SMOOTH",
"241 551 OFFCURVE",
"251 533 OFFCURVE",
"251 505 CURVE SMOOTH",
"251 195 LINE SMOOTH",
"251 167 OFFCURVE",
"241 149 OFFCURVE",
"225 149 CURVE SMOOTH"
);
}
);
width = 451;
}
);
leftKerningGroup = C;
rightKerningGroup = O;
unicode = 004F;
},
{
glyphname = P;
lastChange = "2017-01-14 20:55:16 +0000";
layers = (
{
layerId = "262880E7-CFE1-4BDA-902E-E24798F3240A";
paths = (
{
closed = 1;
nodes = (
"86 0 LINE",
"86 681 LINE",
"264 681 LINE SMOOTH",
"351 681 OFFCURVE",
"410 617 OFFCURVE",
"410 520 CURVE SMOOTH",
"410 425 OFFCURVE",
"351 361 OFFCURVE",
"264 361 CURVE SMOOTH",
"81 361 LINE",
"81 340 LINE",
"262 340 LINE SMOOTH",
"364 340 OFFCURVE",
"432 411 OFFCURVE",
"432 520 CURVE SMOOTH",
"432 629 OFFCURVE",
"364 702 OFFCURVE",
"262 702 CURVE SMOOTH",
"64 702 LINE",
"64 0 LINE"
);
}
);
width = 480;
},
{
layerId = "4E2227F3-52E4-4048-A8EE-327B486EF0A4";
paths = (
{
closed = 1;
nodes = (
"204 0 LINE",
"204 539 LINE",
"217 539 LINE SMOOTH",
"243 539 OFFCURVE",
"262 517 OFFCURVE",
"262 471 CURVE SMOOTH",
"262 426 OFFCURVE",
"243 405 OFFCURVE",
"217 405 CURVE SMOOTH",
"188 405 LINE",
"188 260 LINE",
"260 260 LINE SMOOTH",
"373 260 OFFCURVE",
"450 345 OFFCURVE",
"450 475 CURVE SMOOTH",
"450 608 OFFCURVE",
"369 700 OFFCURVE",
"250 700 CURVE SMOOTH",
"16 700 LINE",
"16 0 LINE"
);
}
);
width = 462;
}
);
leftKerningGroup = H;
unicode = 0050;
},
{
glyphname = Q;
lastChange = "2017-01-14 20:55:27 +0000";
layers = (
{
layerId = "262880E7-CFE1-4BDA-902E-E24798F3240A";
paths = (
{
closed = 1;
nodes = (
"241 -127 LINE",
"241 0 LINE",
"219 0 LINE",
"219 -127 LINE"
);
},
{
closed = 1;
nodes = (
"134 12 OFFCURVE",
"70 68 OFFCURVE",
"70 152 CURVE SMOOTH",
"70 548 LINE SMOOTH",
"70 632 OFFCURVE",
"134 688 OFFCURVE",
"231 688 CURVE SMOOTH",
"328 688 OFFCURVE",
"392 632 OFFCURVE",
"392 548 CURVE SMOOTH",
"392 152 LINE SMOOTH",
"392 68 OFFCURVE",
"328 12 OFFCURVE",
"231 12 CURVE SMOOTH"
);
},
{
closed = 1;
nodes = (
"341 -9 OFFCURVE",
"414 56 OFFCURVE",
"414 154 CURVE SMOOTH",
"414 546 LINE SMOOTH",
"414 644 OFFCURVE",
"341 709 OFFCURVE",
"231 709 CURVE SMOOTH",
"121 709 OFFCURVE",
"48 644 OFFCURVE",
"48 546 CURVE SMOOTH",
"48 154 LINE SMOOTH",
"48 56 OFFCURVE",
"121 -9 OFFCURVE",
"231 -9 CURVE SMOOTH"
);
}
);
width = 479;
},
{
layerId = "4E2227F3-52E4-4048-A8EE-327B486EF0A4";
paths = (
{
closed = 1;
nodes = (
"319 -67 LINE",
"319 133 LINE",
"131 137 LINE",
"131 -67 LINE"
);
},
{
closed = 1;
nodes = (
"209 153 OFFCURVE",
"200 171 OFFCURVE",
"200 199 CURVE SMOOTH",
"200 501 LINE SMOOTH",
"200 529 OFFCURVE",
"209 547 OFFCURVE",
"223 547 CURVE SMOOTH",
"237 547 OFFCURVE",
"246 529 OFFCURVE",
"246 501 CURVE SMOOTH",
"246 199 LINE SMOOTH",
"246 171 OFFCURVE",
"237 153 OFFCURVE",
"223 153 CURVE SMOOTH"
);
},
{
closed = 1;
nodes = (
"351 -8 OFFCURVE",
"434 81 OFFCURVE",
"434 215 CURVE SMOOTH",
"434 485 LINE SMOOTH",
"434 619 OFFCURVE",
"351 708 OFFCURVE",
"223 708 CURVE SMOOTH",
"96 708 OFFCURVE",
"12 619 OFFCURVE",
"12 485 CURVE SMOOTH",
"12 215 LINE SMOOTH",
"12 81 OFFCURVE",
"96 -8 OFFCURVE",
"223 -8 CURVE SMOOTH"
);
}
);
width = 451;
}
);
leftKerningGroup = C;
unicode = 0051;
},
{
glyphname = R;
lastChange = "2017-01-14 20:55:16 +0000";
layers = (
{
layerId = "262880E7-CFE1-4BDA-902E-E24798F3240A";
paths = (
{
closed = 1;
nodes = (
"86 0 LINE",
"86 681 LINE",
"264 681 LINE SMOOTH",
"351 681 OFFCURVE",
"410 617 OFFCURVE",
"410 522 CURVE SMOOTH",
"410 429 OFFCURVE",
"351 365 OFFCURVE",
"264 365 CURVE SMOOTH",
"81 365 LINE",
"81 344 LINE",
"262 344 LINE SMOOTH",
"364 344 OFFCURVE",
"432 415 OFFCURVE",
"432 522 CURVE SMOOTH",
"432 629 OFFCURVE",
"364 702 OFFCURVE",
"262 702 CURVE SMOOTH",
"64 702 LINE",
"64 0 LINE"
);
},
{
closed = 1;
nodes = (
"445 0 LINE",
"310 353 LINE",
"292 345 LINE",
"423 0 LINE"
);
}
);
width = 493;
},
{
layerId = "4E2227F3-52E4-4048-A8EE-327B486EF0A4";
paths = (
{
closed = 1;
nodes = (
"204 0 LINE",
"204 539 LINE",
"217 539 LINE SMOOTH",
"243 539 OFFCURVE",
"262 518 OFFCURVE",
"262 475 CURVE SMOOTH",
"262 434 OFFCURVE",
"243 412 OFFCURVE",
"217 412 CURVE SMOOTH",
"188 412 LINE",
"188 269 LINE",
"260 269 LINE SMOOTH",
"373 269 OFFCURVE",
"450 352 OFFCURVE",
"450 477 CURVE SMOOTH",
"450 608 OFFCURVE",
"369 700 OFFCURVE",
"250 700 CURVE SMOOTH",
"16 700 LINE",
"16 0 LINE"
);
},
{
closed = 1;
nodes = (
"459 0 LINE",
"364 349 LINE",
"185 349 LINE",
"265 0 LINE"
);
}
);
width = 471;
}
);
rightKerningGroup = R;
unicode = 0052;
},
{
color = 3;
glyphname = S;
lastChange = "2017-01-14 20:55:16 +0000";
layers = (
{
layerId = "262880E7-CFE1-4BDA-902E-E24798F3240A";
paths = (
{
closed = 1;
nodes = (
"355 -9 OFFCURVE",
"427 49 OFFCURVE",
"427 149 CURVE SMOOTH",
"427 259 OFFCURVE",
"331 312 OFFCURVE",
"239 364 CURVE SMOOTH",
"151 414 OFFCURVE",
"62 457 OFFCURVE",
"62 550 CURVE SMOOTH",
"62 637 OFFCURVE",
"124 688 OFFCURVE",
"229 688 CURVE SMOOTH",
"336 688 OFFCURVE",
"398 636 OFFCURVE",
"398 548 CURVE SMOOTH",
"398 500 LINE",
"420 500 LINE",
"420 549 LINE SMOOTH",
"420 650 OFFCURVE",
"350 709 OFFCURVE",
"229 709 CURVE SMOOTH",
"110 709 OFFCURVE",
"40 651 OFFCURVE",
"40 552 CURVE SMOOTH",
"40 448 OFFCURVE",
"134 400 OFFCURVE",
"224 348 CURVE SMOOTH",
"312 297 OFFCURVE",
"405 248 OFFCURVE",
"405 149 CURVE SMOOTH",
"405 63 OFFCURVE",
"340 12 OFFCURVE",
"230 12 CURVE SMOOTH",
"124 12 OFFCURVE",
"61 63 OFFCURVE",
"61 151 CURVE SMOOTH",
"61 210 LINE",
"41 210 LINE",
"41 150 LINE SMOOTH",
"41 50 OFFCURVE",
"112 -9 OFFCURVE",
"232 -9 CURVE SMOOTH"
);
}
);
width = 467;
},
{
layerId = "4E2227F3-52E4-4048-A8EE-327B486EF0A4";
paths = (
{
closed = 1;
nodes = (
"345 -8 OFFCURVE",
"430 70 OFFCURVE",
"430 187 CURVE SMOOTH",
"430 287 OFFCURVE",
"370 338 OFFCURVE",
"270 412 CURVE SMOOTH",
"209 458 OFFCURVE",
"195 470 OFFCURVE",
"195 500 CURVE SMOOTH",
"195 524 OFFCURVE",
"204 538 OFFCURVE",
"217 538 CURVE SMOOTH",
"231 538 OFFCURVE",
"241 524 OFFCURVE",
"241 504 CURVE SMOOTH",
"241 490 LINE",
"426 490 LINE",
"426 509 LINE SMOOTH",
"426 628 OFFCURVE",
"343 708 OFFCURVE",
"218 708 CURVE SMOOTH",
"93 708 OFFCURVE",
"10 628 OFFCURVE",
"10 510 CURVE SMOOTH",
"10 387 OFFCURVE",
"98 322 OFFCURVE",
"168 272 CURVE SMOOTH",
"235 224 OFFCURVE",
"245 215 OFFCURVE",
"245 194 CURVE SMOOTH",
"245 175 OFFCURVE",
"235 162 OFFCURVE",
"223 162 CURVE SMOOTH",
"210 162 OFFCURVE",
"200 176 OFFCURVE",
"200 198 CURVE SMOOTH",
"200 211 LINE",
"15 211 LINE",
"15 180 LINE SMOOTH",
"15 70 OFFCURVE",
"96 -8 OFFCURVE",
"221 -8 CURVE SMOOTH"
);
}
);
width = 440;
},
{
associatedMasterId = "4E2227F3-52E4-4048-A8EE-327B486EF0A4";
layerId = "03078EBB-6EAB-41F0-AE5D-9F8E402CC504";
name = "{100,100}";
paths = (
{
closed = 1;
nodes = (
"353 -9 OFFCURVE",
"430 60 OFFCURVE",
"430 168 CURVE SMOOTH",
"430 258 OFFCURVE",
"376 309 OFFCURVE",
"258 388 CURVE SMOOTH",
"191 433 OFFCURVE",
"132 465 OFFCURVE",
"132 535 CURVE SMOOTH",
"132 590 OFFCURVE",
"168 623 OFFCURVE",
"229 623 CURVE SMOOTH",
"290 623 OFFCURVE",
"325 590 OFFCURVE",
"325 533 CURVE SMOOTH",
"325 495 LINE",
"425 495 LINE",
"425 530 LINE SMOOTH",
"425 640 OFFCURVE",
"349 709 OFFCURVE",
"228 709 CURVE SMOOTH",
"107 709 OFFCURVE",
"32 639 OFFCURVE",
"32 534 CURVE SMOOTH",
"32 419 OFFCURVE",
"120 361 OFFCURVE",
"202 308 CURVE SMOOTH",
"287 253 OFFCURVE",
"330 225 OFFCURVE",
"330 166 CURVE SMOOTH",
"330 112 OFFCURVE",
"294 77 OFFCURVE",
"231 77 CURVE SMOOTH",
"169 77 OFFCURVE",
"140 110 OFFCURVE",
"133 173 CURVE SMOOTH",
"129 210 LINE",
"29 210 LINE",
"32 164 LINE SMOOTH",
"39 59 OFFCURVE",
"110 -9 OFFCURVE",
"231 -9 CURVE SMOOTH"
);
}
);
width = 459;
}
);
leftKerningGroup = S;
rightKerningGroup = S;
unicode = 0053;
},
{
glyphname = T;
lastChange = "2017-01-14 20:55:16 +0000";
layers = (
{
layerId = "262880E7-CFE1-4BDA-902E-E24798F3240A";
paths = (
{
closed = 1;
nodes = (
"237 0 LINE",
"237 689 LINE",
"215 689 LINE",
"215 0 LINE"
);
},
{
closed = 1;
nodes = (
"431 679 LINE",
"431 700 LINE",
"32 700 LINE",
"32 679 LINE"
);
}
);
width = 447;
},
{
layerId = "4E2227F3-52E4-4048-A8EE-327B486EF0A4";
paths = (
{
closed = 1;
nodes = (
"326 0 LINE",
"326 689 LINE",
"138 689 LINE",
"138 0 LINE"
);
},
{
closed = 1;
nodes = (
"459 530 LINE",
"459 700 LINE",
"8 700 LINE",
"8 530 LINE"
);
}
);
width = 463;
}
);
leftKerningGroup = T;
rightKerningGroup = T;
unicode = 0054;
},
{
glyphname = U;
lastChange = "2017-01-14 20:55:16 +0000";
layers = (
{
layerId = "262880E7-CFE1-4BDA-902E-E24798F3240A";
paths = (
{
closed = 1;
nodes = (
"364 -9 OFFCURVE",
"442 59 OFFCURVE",
"442 160 CURVE SMOOTH",
"442 700 LINE",
"420 700 LINE",
"420 156 LINE SMOOTH",
"420 70 OFFCURVE",
"351 12 OFFCURVE",
"248 12 CURVE SMOOTH",
"146 12 OFFCURVE",
"78 70 OFFCURVE",
"78 156 CURVE SMOOTH",
"78 700 LINE",
"56 700 LINE",
"56 160 LINE SMOOTH",
"56 59 OFFCURVE",
"133 -9 OFFCURVE",
"248 -9 CURVE SMOOTH"
);
}
);
width = 498;
},
{
layerId = "4E2227F3-52E4-4048-A8EE-327B486EF0A4";
paths = (
{
closed = 1;
nodes = (
"352 -8 OFFCURVE",
"436 77 OFFCURVE",
"436 208 CURVE SMOOTH",
"436 700 LINE",
"248 700 LINE",
"248 199 LINE SMOOTH",
"248 171 OFFCURVE",
"239 153 OFFCURVE",
"225 153 CURVE SMOOTH",
"212 153 OFFCURVE",
"202 171 OFFCURVE",
"202 199 CURVE SMOOTH",
"202 700 LINE",
"14 700 LINE",
"14 208 LINE SMOOTH",
"14 77 OFFCURVE",
"99 -8 OFFCURVE",
"225 -8 CURVE SMOOTH"
);
}
);
width = 450;
}
);
rightKerningGroup = U;
unicode = 0055;
},
{
glyphname = V;
lastChange = "2017-01-14 20:55:16 +0000";
layers = (
{
layerId = "262880E7-CFE1-4BDA-902E-E24798F3240A";
paths = (
{
closed = 1;
nodes = (
"249 0 LINE",
"452 700 LINE",
"430 700 LINE",
"238 42 LINE",
"46 700 LINE",
"24 700 LINE",
"227 0 LINE"
);
}
);
width = 476;
},
{
layerId = "4E2227F3-52E4-4048-A8EE-327B486EF0A4";
paths = (
{
closed = 1;
nodes = (
"349 0 LINE",
"490 700 LINE",
"292 700 LINE",
"253 305 LINE",
"209 700 LINE",
"6 700 LINE",
"146 0 LINE"
);
}
);
width = 496;
}
);
leftKerningGroup = V;
rightKerningGroup = V;
unicode = 0056;
},
{
color = 3;
glyphname = W;
lastChange = "2017-01-14 20:55:16 +0000";
layers = (
{
layerId = "262880E7-CFE1-4BDA-902E-E24798F3240A";
paths = (
{
closed = 1;
nodes = (
"202 0 LINE",
"353 656 LINE",
"499 0 LINE",
"521 0 LINE",
"679 700 LINE",
"657 700 LINE",
"511 40 LINE",
"363 700 LINE",
"341 700 LINE",
"192 40 LINE",
"46 700 LINE",
"24 700 LINE",
"180 0 LINE"
);
}
);
width = 703;
},
{
layerId = "4E2227F3-52E4-4048-A8EE-327B486EF0A4";
paths = (
{
closed = 1;
nodes = (
"308 0 LINE",
"342 362 LINE",
"385 0 LINE",
"549 0 LINE",
"678 700 LINE",
"485 700 LINE",
"468 352 LINE",
"422 700 LINE",
"257 700 LINE",
"226 352 LINE",
"204 700 LINE",
"6 700 LINE",
"143 0 LINE"
);
}
);
width = 684;
},
{
associatedMasterId = "4E2227F3-52E4-4048-A8EE-327B486EF0A4";
layerId = "00817788-74B3-4815-A650-DCBCEB913647";
name = "{100,100}";
paths = (
{
closed = 1;
nodes = (
"249 0 LINE",
"342 519 LINE",
"436 0 LINE",
"527 0 LINE",
"670 700 LINE",
"566 700 LINE",
"483 186 LINE",
"386 700 LINE",
"296 700 LINE",
"206 186 LINE",
"121 700 LINE",
"17 700 LINE",
"161 0 LINE"
);
}
);
width = 687;
}
);
leftKerningGroup = V;
rightKerningGroup = V;
unicode = 0057;
},
{
glyphname = X;
lastChange = "2017-01-14 20:55:16 +0000";
layers = (
{
layerId = "262880E7-CFE1-4BDA-902E-E24798F3240A";
paths = (
{
closed = 1;
nodes = (
"49 0 LINE",
"226 330 LINE",
"402 0 LINE",
"427 0 LINE",
"236 349 LINE",
"427 700 LINE",
"402 700 LINE",
"226 369 LINE",
"49 700 LINE",
"24 700 LINE",
"215 350 LINE",
"24 0 LINE"
);
}
);
width = 451;
},
{
layerId = "4E2227F3-52E4-4048-A8EE-327B486EF0A4";
paths = (
{
closed = 1;
nodes = (
"197 0 LINE",
"240 162 LINE",
"283 0 LINE",
"473 0 LINE",
"339 350 LINE",
"473 700 LINE",
"282 700 LINE",
"240 537 LINE",
"198 700 LINE",
"6 700 LINE",
"140 350 LINE",
"6 0 LINE"
);
}
);
width = 479;
}
);
rightKerningGroup = X;
unicode = 0058;
},
{
glyphname = Y;
lastChange = "2017-01-14 20:55:16 +0000";
layers = (
{
layerId = "262880E7-CFE1-4BDA-902E-E24798F3240A";
paths = (
{
closed = 1;
nodes = (
"233 0 LINE",
"233 339 LINE",
"419 700 LINE",
"397 700 LINE",
"222 358 LINE",
"46 700 LINE",
"24 700 LINE",
"211 339 LINE",
"211 0 LINE"
);
}
);
width = 443;
},
{
layerId = "4E2227F3-52E4-4048-A8EE-327B486EF0A4";
paths = (
{
closed = 1;
nodes = (
"335 2 LINE",
"335 251 LINE",
"478 700 LINE",
"280 700 LINE",
"242 455 LINE",
"204 700 LINE",
"6 700 LINE",
"147 251 LINE",
"147 2 LINE"
);
}
);
width = 484;
}
);
leftKerningGroup = Y;
unicode = 0059;
},
{
glyphname = Z;
lastChange = "2017-01-14 20:55:16 +0000";
layers = (
{
layerId = "262880E7-CFE1-4BDA-902E-E24798F3240A";
paths = (
{
closed = 1;
nodes = (
"392 0 LINE",
"392 21 LINE",
"49 21 LINE",
"392 679 LINE",
"392 700 LINE",
"24 700 LINE",
"24 679 LINE",
"368 679 LINE",
"24 21 LINE",
"24 0 LINE"
);
}
);
width = 424;
},
{
layerId = "4E2227F3-52E4-4048-A8EE-327B486EF0A4";
paths = (
{
closed = 1;
nodes = (
"393 0 LINE",
"393 170 LINE",
"202 170 LINE",
"393 530 LINE",
"393 700 LINE",
"6 700 LINE",
"6 530 LINE",
"195 530 LINE",
"6 170 LINE",
"6 0 LINE"
);
}
);
width = 401;
}
);
leftKerningGroup = Z;
rightKerningGroup = Z;
unicode = 005A;
},
{
glyphname = a;
lastChange = "2017-01-14 20:55:16 +0000";
layers = (
{
layerId = "262880E7-CFE1-4BDA-902E-E24798F3240A";
paths = (
{
closed = 1;
nodes = (
"391 0 LINE",
"391 342 LINE SMOOTH",
"391 447 OFFCURVE",
"338 508 OFFCURVE",
"236 508 CURVE SMOOTH",
"138 508 OFFCURVE",
"74 450 OFFCURVE",
"74 352 CURVE SMOOTH",
"74 351 LINE",
"96 351 LINE",
"96 355 LINE SMOOTH",
"96 438 OFFCURVE",
"152 487 OFFCURVE",
"236 487 CURVE SMOOTH",
"324 487 OFFCURVE",
"369 434 OFFCURVE",
"369 345 CURVE SMOOTH",
"369 0 LINE"
);
},
{
closed = 1;
nodes = (
"298 -8 OFFCURVE",
"386 37 OFFCURVE",
"386 142 CURVE",
"386 277 LINE",
"243 277 LINE",
"113 277 OFFCURVE",
"48 226 OFFCURVE",
"48 125 CURVE SMOOTH",
"48 18 OFFCURVE",
"131 -8 OFFCURVE",
"199 -8 CURVE SMOOTH"
);
},
{
closed = 1;
nodes = (
"130 13 OFFCURVE",
"70 45 OFFCURVE",
"70 126 CURVE SMOOTH",
"70 213 OFFCURVE",
"132 256 OFFCURVE",
"243 256 CURVE",
"369 256 LINE",
"369 142 LINE SMOOTH",
"369 52 OFFCURVE",
"286 13 OFFCURVE",
"201 13 CURVE SMOOTH"
);
}
);
width = 455;
},
{
layerId = "4E2227F3-52E4-4048-A8EE-327B486EF0A4";
paths = (
{
closed = 1;
nodes = (
"449 0 LINE",
"449 360 LINE SMOOTH",
"449 461 OFFCURVE",
"362 528 OFFCURVE",
"232 528 CURVE SMOOTH",
"105 528 OFFCURVE",
"17 450 OFFCURVE",
"17 360 CURVE SMOOTH",
"17 339 LINE",
"206 332 LINE",
"206 337 LINE SMOOTH",
"206 355 OFFCURVE",
"217 367 OFFCURVE",
"232 367 CURVE SMOOTH",
"249 367 OFFCURVE",
"261 355 OFFCURVE",
"261 337 CURVE SMOOTH",
"261 0 LINE"
);
},
{
closed = 1;
nodes = (
"250 -7 OFFCURVE",
"350 89 OFFCURVE",
"350 197 CURVE",
"350 313 LINE",
"221 313 LINE",
"95 313 OFFCURVE",
"12 297 OFFCURVE",
"12 151 CURVE SMOOTH",
"12 9 OFFCURVE",
"86 -9 OFFCURVE",
"155 -8 CURVE SMOOTH"
);
},
{
closed = 1;
nodes = (
"216 125 OFFCURVE",
"204 134 OFFCURVE",
"204 153 CURVE SMOOTH",
"204 170 OFFCURVE",
"216 185 OFFCURVE",
"235 185 CURVE",
"261 185 LINE",
"261 152 LINE SMOOTH",
"261 135 OFFCURVE",
"243 125 OFFCURVE",
"229 125 CURVE SMOOTH"
);
}
);
width = 465;
},
{
associatedMasterId = "4E2227F3-52E4-4048-A8EE-327B486EF0A4";
layerId = "ECDB5D87-04FB-4DD9-B431-22FBE4ECF321";
name = "{100,100}";
paths = (
{
closed = 1;
nodes = (
"423 0 LINE",
"423 328 LINE SMOOTH",
"423 441 OFFCURVE",
"351 517 OFFCURVE",
"237 517 CURVE SMOOTH",
"128 517 OFFCURVE",
"49 448 OFFCURVE",
"49 345 CURVE SMOOTH",
"49 333 LINE",
"149 333 LINE",
"149 337 LINE SMOOTH",
"149 390 OFFCURVE",
"185 425 OFFCURVE",
"238 425 CURVE SMOOTH",
"290 425 OFFCURVE",
"323 387 OFFCURVE",
"323 331 CURVE SMOOTH",
"323 0 LINE"
);
},
{
closed = 1;
nodes = (
"298 -8 OFFCURVE",
"364 55 OFFCURVE",
"364 162 CURVE",
"364 301 LINE",
"237 301 LINE",
"115 301 OFFCURVE",
"36 253 OFFCURVE",
"36 144 CURVE SMOOTH",
"36 36 OFFCURVE",
"114 -8 OFFCURVE",
"198 -8 CURVE SMOOTH"
);
},
{
closed = 1;
nodes = (
"177 84 OFFCURVE",
"136 100 OFFCURVE",
"136 147 CURVE SMOOTH",
"136 197 OFFCURVE",
"181 219 OFFCURVE",
"268 219 CURVE",
"323 219 LINE",
"323 183 LINE SMOOTH",
"323 123 OFFCURVE",
"269 84 OFFCURVE",
"213 84 CURVE SMOOTH"
);
}
);
width = 465;
}
);
leftKerningGroup = a;
rightKerningGroup = b;
unicode = 0061;
},
{
glyphname = b;
lastChange = "2017-01-14 20:55:27 +0000";
layers = (
{
components = (
{
name = b.bowl;
transform = "{1, 0, 0, 1, 67, 0}";
}
);
layerId = "262880E7-CFE1-4BDA-902E-E24798F3240A";
paths = (
{
closed = 1;
nodes = (
"86 0 LINE",
"86 700 LINE",
"64 700 LINE",
"64 0 LINE"
);
}
);
width = 455;
},
{
components = (
{
name = b.bowl;
transform = "{1, 0, 0, 1, 170, 0}";
}
);
layerId = "4E2227F3-52E4-4048-A8EE-327B486EF0A4";
paths = (
{
closed = 1;
nodes = (
"204 0 LINE",
"204 700 LINE",
"16 700 LINE",
"16 0 LINE"
);
}
);
width = 451;
}
);
leftKerningGroup = b;
rightKerningGroup = n;
unicode = 0062;
},
{
glyphname = c;
lastChange = "2017-01-14 20:55:16 +0000";
layers = (
{
layerId = "262880E7-CFE1-4BDA-902E-E24798F3240A";
paths = (
{
closed = 1;
nodes = (
"320 -8 OFFCURVE",
"387 50 OFFCURVE",
"387 136 CURVE SMOOTH",
"387 149 LINE",
"365 149 LINE",
"365 135 LINE SMOOTH",
"365 62 OFFCURVE",
"308 13 OFFCURVE",
"222 13 CURVE SMOOTH",
"137 13 OFFCURVE",
"78 70 OFFCURVE",
"78 155 CURVE SMOOTH",
"78 345 LINE SMOOTH",
"78 430 OFFCURVE",
"137 487 OFFCURVE",
"222 487 CURVE SMOOTH",
"308 487 OFFCURVE",
"365 438 OFFCURVE",
"365 365 CURVE SMOOTH",
"365 351 LINE",
"387 351 LINE",
"387 364 LINE SMOOTH",
"387 450 OFFCURVE",
"320 508 OFFCURVE",
"222 508 CURVE SMOOTH",
"124 508 OFFCURVE",
"56 442 OFFCURVE",
"56 344 CURVE SMOOTH",
"56 156 LINE SMOOTH",
"56 58 OFFCURVE",
"124 -8 OFFCURVE",
"222 -8 CURVE SMOOTH"
);
}
);
width = 435;
},
{
layerId = "4E2227F3-52E4-4048-A8EE-327B486EF0A4";
paths = (
{
closed = 1;
nodes = (
"363 -7 OFFCURVE",
"439 67 OFFCURVE",
"439 190 CURVE SMOOTH",
"439 212 LINE",
"251 212 LINE",
"251 185 LINE SMOOTH",
"251 164 OFFCURVE",
"243 153 OFFCURVE",
"227 153 CURVE SMOOTH",
"210 153 OFFCURVE",
"202 164 OFFCURVE",
"202 185 CURVE SMOOTH",
"202 336 LINE SMOOTH",
"202 357 OFFCURVE",
"210 368 OFFCURVE",
"227 368 CURVE SMOOTH",
"243 368 OFFCURVE",
"251 357 OFFCURVE",
"251 336 CURVE SMOOTH",
"251 307 LINE",
"439 307 LINE",
"439 330 LINE SMOOTH",
"439 454 OFFCURVE",
"363 528 OFFCURVE",
"227 528 CURVE SMOOTH",
"91 528 OFFCURVE",
"14 454 OFFCURVE",
"14 330 CURVE SMOOTH",
"14 190 LINE SMOOTH",
"14 67 OFFCURVE",
"91 -7 OFFCURVE",
"227 -7 CURVE SMOOTH"
);
}
);
width = 451;
}
);
leftKerningGroup = o;
rightKerningGroup = c;
unicode = 0063;
},
{
color = 3;
glyphname = e;
lastChange = "2017-01-14 20:55:16 +0000";
layers = (
{
layerId = "262880E7-CFE1-4BDA-902E-E24798F3240A";
paths = (
{
closed = 1;
nodes = (
"303 -8 OFFCURVE",
"369 39 OFFCURVE",
"385 109 CURVE",
"363 108 LINE",
"347 51 OFFCURVE",
"290 13 OFFCURVE",
"223 13 CURVE SMOOTH",
"137 13 OFFCURVE",
"78 70 OFFCURVE",
"78 155 CURVE SMOOTH",
"78 345 LINE SMOOTH",
"78 430 OFFCURVE",
"137 487 OFFCURVE",
"222 487 CURVE SMOOTH",
"309 487 OFFCURVE",
"367 430 OFFCURVE",
"367 345 CURVE SMOOTH",
"367 265 LINE",
"68 265 LINE",
"68 244 LINE",
"389 244 LINE",
"389 343 LINE SMOOTH",
"389 442 OFFCURVE",
"322 508 OFFCURVE",
"222 508 CURVE SMOOTH",
"124 508 OFFCURVE",
"56 442 OFFCURVE",
"56 344 CURVE SMOOTH",
"56 156 LINE SMOOTH",
"56 58 OFFCURVE",
"124 -8 OFFCURVE",
"223 -8 CURVE SMOOTH"
);
}
);
width = 445;
},
{
layerId = "4E2227F3-52E4-4048-A8EE-327B486EF0A4";
paths = (
{
closed = 1;
nodes = (
"359 -7 OFFCURVE",
"440 58 OFFCURVE",
"439 177 CURVE",
"251 184 LINE",
"250 160 OFFCURVE",
"240 154 OFFCURVE",
"228 154 CURVE SMOOTH",
"210 154 OFFCURVE",
"202 166 OFFCURVE",
"202 193 CURVE SMOOTH",
"202 332 LINE SMOOTH",
"202 355 OFFCURVE",
"210 367 OFFCURVE",
"227 367 CURVE SMOOTH",
"243 367 OFFCURVE",
"251 355 OFFCURVE",
"251 332 CURVE SMOOTH",
"251 306 LINE",
"130 306 LINE",
"130 215 LINE",
"439 215 LINE",
"439 331 LINE SMOOTH",
"439 457 OFFCURVE",
"363 528 OFFCURVE",
"227 528 CURVE SMOOTH",
"91 528 OFFCURVE",
"14 457 OFFCURVE",
"14 331 CURVE SMOOTH",
"14 189 LINE SMOOTH",
"14 64 OFFCURVE",
"89 -7 OFFCURVE",
"227 -7 CURVE SMOOTH"
);
}
);
width = 453;
},
{
associatedMasterId = "4E2227F3-52E4-4048-A8EE-327B486EF0A4";
layerId = "7684808E-3924-47D5-8253-7E3CAB4AD1BF";
name = "{100,100}";
paths = (
{
closed = 1;
nodes = (
"334 -8 OFFCURVE",
"406 49 OFFCURVE",
"414 143 CURVE",
"314 152 LINE",
"305 104 OFFCURVE",
"271 78 OFFCURVE",
"228 78 CURVE SMOOTH",
"175 78 OFFCURVE",
"139 115 OFFCURVE",
"139 178 CURVE SMOOTH",
"139 339 LINE SMOOTH",
"139 395 OFFCURVE",
"175 431 OFFCURVE",
"228 431 CURVE SMOOTH",
"282 431 OFFCURVE",
"316 395 OFFCURVE",
"316 339 CURVE SMOOTH",
"316 296 LINE",
"100 296 LINE",
"100 217 LINE",
"416 217 LINE",
"416 337 LINE SMOOTH",
"416 449 OFFCURVE",
"345 517 OFFCURVE",
"228 517 CURVE SMOOTH",
"112 517 OFFCURVE",
"40 449 OFFCURVE",
"40 338 CURVE SMOOTH",
"40 171 LINE SMOOTH",
"40 61 OFFCURVE",
"112 -8 OFFCURVE",
"228 -8 CURVE SMOOTH"
);
}
);
width = 456;
}
);
leftKerningGroup = o;
rightKerningGroup = o;
unicode = 0065;
},
{
color = 3;
glyphname = f;
lastChange = "2017-01-14 20:55:41 +0000";
layers = (
{
layerId = "262880E7-CFE1-4BDA-902E-E24798F3240A";
paths = (
{
closed = 1;
nodes = (
"102 0 LINE",
"102 550 LINE SMOOTH",
"102 637 OFFCURVE",
"119 689 OFFCURVE",
"209 689 CURVE SMOOTH",
"240 689 LINE",
"240 710 LINE",
"209 710 LINE SMOOTH",
"106 710 OFFCURVE",
"80 650 OFFCURVE",
"80 550 CURVE SMOOTH",
"80 0 LINE"
);
},
{
closed = 1;
nodes = (
"235 479 LINE",
"235 500 LINE",
"5 500 LINE",
"5 479 LINE"
);
}
);
width = 251;
},
{
layerId = "4E2227F3-52E4-4048-A8EE-327B486EF0A4";
paths = (
{
closed = 1;
nodes = (
"229 0 LINE",
"229 539 LINE SMOOTH",
"229 557 OFFCURVE",
"242 572 OFFCURVE",
"266 575 CURVE",
"273 575 LINE",
"273 700 LINE",
"266 700 LINE",
"124 707 OFFCURVE",
"41 683 OFFCURVE",
"41 556 CURVE SMOOTH",
"41 0 LINE"
);
},
{
closed = 1;
nodes = (
"287 390 LINE",
"287 520 LINE",
"0 520 LINE",
"0 390 LINE"
);
}
);
width = 291;
},
{
associatedMasterId = "4E2227F3-52E4-4048-A8EE-327B486EF0A4";
layerId = "DA8FD0F5-80C6-4412-9715-56371734F2F4";
name = "{100,100}";
paths = (
{
closed = 1;
nodes = (
"189 0 LINE",
"189 517 LINE",
"189 574 OFFCURVE",
"208 606 OFFCURVE",
"273 606 CURVE SMOOTH",
"307 606 LINE",
"307 700 LINE",
"263 700 LINE SMOOTH",
"150 700 OFFCURVE",
"89 645 OFFCURVE",
"89 530 CURVE",
"89 0 LINE"
);
},
{
closed = 1;
nodes = (
"307 418 LINE",
"307 510 LINE",
"8 510 LINE",
"8 418 LINE"
);
}
);
width = 318;
}
);
leftKerningGroup = t;
unicode = 0066;
},
{
glyphname = g;
lastChange = "2017-01-14 20:55:27 +0000";
layers = (
{
components = (
{
name = b.bowl;
transform = "{-1, 0, 0, 1, 388, 0}";
}
);
layerId = "262880E7-CFE1-4BDA-902E-E24798F3240A";
paths = (
{
closed = 1;
nodes = (
"320 -204 OFFCURVE",
"391 -137 OFFCURVE",
"391 0 CURVE SMOOTH",
"391 500 LINE",
"369 500 LINE",
"369 0 LINE SMOOTH",
"369 -123 OFFCURVE",
"305 -183 OFFCURVE",
"218 -179 CURVE",
"218 -200 LINE"
);
}
);
width = 455;
},
{
components = (
{
name = b.bowl;
transform = "{-1, 0, 0, 1, 281, 0}";
}
);
layerId = "4E2227F3-52E4-4048-A8EE-327B486EF0A4";
paths = (
{
closed = 1;
nodes = (
"381 -233 OFFCURVE",
"434 -115 OFFCURVE",
"434 34 CURVE SMOOTH",
"434 520 LINE",
"246 520 LINE",
"246 54 LINE SMOOTH",
"246 -14 OFFCURVE",
"239 -56 OFFCURVE",
"94 -45 CURVE",
"94 -207 LINE"
);
}
);
width = 450;
}
);
leftKerningGroup = d;
rightKerningGroup = g;
unicode = 0067;
},
{
glyphname = h;
lastChange = "2017-01-14 20:55:27 +0000";
layers = (
{
components = (
{
name = n.curve;
transform = "{1, 0, 0, 1, 68, 0}";
}
);
layerId = "262880E7-CFE1-4BDA-902E-E24798F3240A";
paths = (
{
closed = 1;
nodes = (
"86 0 LINE",
"86 700 LINE",
"64 700 LINE",
"64 0 LINE"
);
}
);
width = 448;
},
{
components = (
{
name = n.curve;
transform = "{1, 0, 0, 1, 168, 0}";
}
);
layerId = "4E2227F3-52E4-4048-A8EE-327B486EF0A4";
paths = (
{
closed = 1;
nodes = (
"204 0 LINE",
"204 700 LINE",
"16 700 LINE",
"16 0 LINE"
);
}
);
width = 450;
}
);
leftKerningGroup = b;
rightKerningGroup = n;
unicode = 0068;
},
{
glyphname = i;
lastChange = "2017-01-14 20:55:16 +0000";
layers = (
{
layerId = "262880E7-CFE1-4BDA-902E-E24798F3240A";
paths = (
{
closed = 1;
nodes = (
"86 0 LINE",
"86 500 LINE",
"64 500 LINE",
"64 0 LINE"
);
},
{
closed = 1;
nodes = (
"92 620 OFFCURVE",
"105 633 OFFCURVE",
"105 650 CURVE SMOOTH",
"105 666 OFFCURVE",
"92 679 OFFCURVE",
"75 679 CURVE SMOOTH",
"58 679 OFFCURVE",
"44 666 OFFCURVE",
"44 650 CURVE SMOOTH",
"44 633 OFFCURVE",
"58 620 OFFCURVE",
"75 620 CURVE SMOOTH"
);
}
);
width = 150;
},
{
layerId = "4E2227F3-52E4-4048-A8EE-327B486EF0A4";
paths = (
{
closed = 1;
nodes = (
"204 0 LINE",
"204 520 LINE",
"16 520 LINE",
"16 0 LINE"
);
},
{
closed = 1;
nodes = (
"173 540 OFFCURVE",
"214 582 OFFCURVE",
"214 645 CURVE SMOOTH",
"214 708 OFFCURVE",
"173 750 OFFCURVE",
"110 750 CURVE SMOOTH",
"48 750 OFFCURVE",
"6 708 OFFCURVE",
"6 645 CURVE SMOOTH",
"6 582 OFFCURVE",
"48 540 OFFCURVE",
"110 540 CURVE SMOOTH"
);
}
);
width = 220;
}
);
leftKerningGroup = i;
unicode = 0069;
},
{
glyphname = j;
lastChange = "2017-01-14 20:55:16 +0000";
layers = (
{
layerId = "262880E7-CFE1-4BDA-902E-E24798F3240A";
paths = (
{
closed = 1;
nodes = (
"67 -211 OFFCURVE",
"118 -159 OFFCURVE",
"118 -74 CURVE SMOOTH",
"118 500 LINE",
"96 500 LINE",
"96 -74 LINE SMOOTH",
"96 -146 OFFCURVE",
"54 -190 OFFCURVE",
"-16 -190 CURVE",
"-16 -211 LINE"
);
},
{
closed = 1;
nodes = (
"126 660 OFFCURVE",
"138 671 OFFCURVE",
"138 690 CURVE SMOOTH",
"138 709 OFFCURVE",
"126 719 OFFCURVE",
"107 719 CURVE SMOOTH",
"89 719 OFFCURVE",
"76 709 OFFCURVE",
"76 690 CURVE SMOOTH",
"76 671 OFFCURVE",
"89 660 OFFCURVE",
"107 660 CURVE SMOOTH"
);
}
);
width = 198;
},
{
layerId = "4E2227F3-52E4-4048-A8EE-327B486EF0A4";
paths = (
{
closed = 1;
nodes = (
"207 -210 OFFCURVE",
"212 -120 OFFCURVE",
"212 29 CURVE SMOOTH",
"212 520 LINE",
"24 520 LINE",
"24 29 LINE SMOOTH",
"24 -19 OFFCURVE",
"9 -49 OFFCURVE",
"-72 -41 CURVE",
"-72 -201 LINE"
);
},
{
closed = 1;
nodes = (
"179 540 OFFCURVE",
"222 587 OFFCURVE",
"222 645 CURVE SMOOTH",
"222 703 OFFCURVE",
"170 750 OFFCURVE",
"118 750 CURVE SMOOTH",
"65 750 OFFCURVE",
"14 703 OFFCURVE",
"14 645 CURVE SMOOTH",
"14 587 OFFCURVE",
"56 540 OFFCURVE",
"118 540 CURVE SMOOTH"
);
}
);
width = 232;
}
);
leftKerningGroup = j;
unicode = 006A;
},
{
glyphname = k;
lastChange = "2017-01-14 20:55:16 +0000";
layers = (
{
guideLines = (
{
angle = 180;
position = "{267, 0}";
showMeasurement = 1;
}
);
layerId = "262880E7-CFE1-4BDA-902E-E24798F3240A";
paths = (
{
closed = 1;
nodes = (
"102 0 LINE",
"102 200 LINE",
"242 347 LINE",
"387 0 LINE",
"411 0 LINE",
"258 363 LINE",
"391 500 LINE",
"363 500 LINE",
"102 227 LINE",
"102 700 LINE",
"80 700 LINE",
"80 0 LINE"
);
}
);
width = 435;
},
{
layerId = "4E2227F3-52E4-4048-A8EE-327B486EF0A4";
paths = (
{
closed = 1;
nodes = (
"208 0 LINE",
"208 137 LINE",
"221 166 LINE",
"273 0 LINE",
"467 0 LINE",
"336 315 LINE",
"461 520 LINE",
"268 520 LINE",
"208 392 LINE",
"208 700 LINE",
"20 700 LINE",
"20 0 LINE"
);
}
);
width = 473;
}
);
leftKerningGroup = b;
rightKerningGroup = k;
unicode = 006B;
},
{
glyphname = l;
lastChange = "2017-01-14 20:55:16 +0000";
layers = (
{
layerId = "262880E7-CFE1-4BDA-902E-E24798F3240A";
paths = (
{
closed = 1;
nodes = (
"86 0 LINE",
"86 700 LINE",
"64 700 LINE",
"64 0 LINE"
);
}
);
width = 150;
},
{
layerId = "4E2227F3-52E4-4048-A8EE-327B486EF0A4";
paths = (
{
closed = 1;
nodes = (
"204 0 LINE",
"204 700 LINE",
"16 700 LINE",
"16 0 LINE"
);
}
);
width = 220;
}
);
leftKerningGroup = l;
rightKerningGroup = l;
unicode = 006C;
},
{
glyphname = m;
lastChange = "2017-01-14 20:55:16 +0000";
layers = (
{
layerId = "262880E7-CFE1-4BDA-902E-E24798F3240A";
paths = (
{
closed = 1;
nodes = (
"86 0 LINE",
"86 500 LINE",
"64 500 LINE",
"64 0 LINE"
);
},
{
closed = 1;
nodes = (
"379 0 LINE",
"379 347 LINE SMOOTH",
"379 446 OFFCURVE",
"317 507 OFFCURVE",
"228 507 CURVE SMOOTH",
"132 507 OFFCURVE",
"69 448 OFFCURVE",
"69 346 CURVE",
"86 346 LINE",
"86 433 OFFCURVE",
"140 486 OFFCURVE",
"225 486 CURVE SMOOTH",
"303 486 OFFCURVE",
"357 432 OFFCURVE",
"357 344 CURVE SMOOTH",
"357 0 LINE"
);
},
{
closed = 1;
nodes = (
"673 0 LINE",
"673 347 LINE SMOOTH",
"673 446 OFFCURVE",
"610 507 OFFCURVE",
"521 507 CURVE SMOOTH",
"426 507 OFFCURVE",
"362 448 OFFCURVE",
"362 346 CURVE",
"379 346 LINE",
"379 433 OFFCURVE",
"434 486 OFFCURVE",
"518 486 CURVE SMOOTH",
"596 486 OFFCURVE",
"651 432 OFFCURVE",
"651 344 CURVE SMOOTH",
"651 0 LINE"
);
}
);
width = 729;
},
{
layerId = "4E2227F3-52E4-4048-A8EE-327B486EF0A4";
paths = (
{
closed = 1;
nodes = (
"204 0 LINE",
"204 520 LINE",
"16 520 LINE",
"16 0 LINE"
);
},
{
closed = 1;
nodes = (
"436 0 LINE",
"436 348 LINE SMOOTH",
"436 459 OFFCURVE",
"395 528 OFFCURVE",
"294 528 CURVE SMOOTH",
"257 528 OFFCURVE",
"167 515 OFFCURVE",
"168 335 CURVE",
"204 335 LINE",
"204 356 OFFCURVE",
"212 367 OFFCURVE",
"227 367 CURVE SMOOTH",
"241 367 OFFCURVE",
"248 356 OFFCURVE",
"248 335 CURVE SMOOTH",
"248 0 LINE"
);
},
{
closed = 1;
nodes = (
"668 0 LINE",
"668 348 LINE SMOOTH",
"668 459 OFFCURVE",
"627 528 OFFCURVE",
"526 528 CURVE SMOOTH",
"489 528 OFFCURVE",
"399 515 OFFCURVE",
"400 335 CURVE",
"436 335 LINE",
"436 356 OFFCURVE",
"444 367 OFFCURVE",
"459 367 CURVE SMOOTH",
"473 367 OFFCURVE",
"480 356 OFFCURVE",
"480 335 CURVE SMOOTH",
"480 0 LINE"
);
}
);
width = 682;
}
);
leftKerningGroup = n;
rightKerningGroup = h;
unicode = 006D;
},
{
glyphname = n;
lastChange = "2017-01-14 20:55:27 +0000";
layers = (
{
components = (
{
name = n.curve;
transform = "{1, 0, 0, 1, 68, 0}";
}
);
layerId = "262880E7-CFE1-4BDA-902E-E24798F3240A";
paths = (
{
closed = 1;
nodes = (
"86 0 LINE",
"86 500 LINE",
"64 500 LINE",
"64 0 LINE"
);
}
);
width = 448;
},
{
components = (
{
name = n.curve;
transform = "{1, 0, 0, 1, 168, 0}";
}
);
layerId = "4E2227F3-52E4-4048-A8EE-327B486EF0A4";
paths = (
{
closed = 1;
nodes = (
"204 0 LINE",
"204 520 LINE",
"16 520 LINE",
"16 0 LINE"
);
}
);
width = 450;
}
);
leftKerningGroup = n;
rightKerningGroup = n;
unicode = 006E;
},
{
glyphname = o;
lastChange = "2017-01-14 20:55:16 +0000";
layers = (
{
guideLines = (
{
angle = 180;
position = "{219, 250}";
showMeasurement = 1;
},
{
angle = 120;
position = "{219, 250}";
showMeasurement = 1;
},
{
angle = 60;
position = "{219, 250}";
showMeasurement = 1;
}
);
layerId = "262880E7-CFE1-4BDA-902E-E24798F3240A";
paths = (
{
closed = 1;
nodes = (
"318 -8 OFFCURVE",
"385 58 OFFCURVE",
"385 156 CURVE SMOOTH",
"385 344 LINE SMOOTH",
"385 442 OFFCURVE",
"318 508 OFFCURVE",
"216 508 CURVE SMOOTH",
"116 508 OFFCURVE",
"48 442 OFFCURVE",
"48 344 CURVE SMOOTH",
"48 156 LINE SMOOTH",
"48 58 OFFCURVE",
"116 -8 OFFCURVE",
"216 -8 CURVE SMOOTH"
);
},
{
closed = 1;
nodes = (
"129 13 OFFCURVE",
"70 70 OFFCURVE",
"70 155 CURVE SMOOTH",
"70 345 LINE SMOOTH",
"70 430 OFFCURVE",
"129 487 OFFCURVE",
"216 487 CURVE SMOOTH",
"305 487 OFFCURVE",
"363 430 OFFCURVE",
"363 345 CURVE SMOOTH",
"363 155 LINE SMOOTH",
"363 70 OFFCURVE",
"305 13 OFFCURVE",
"216 13 CURVE SMOOTH"
);
}
);
width = 433;
},
{
layerId = "4E2227F3-52E4-4048-A8EE-327B486EF0A4";
paths = (
{
closed = 1;
nodes = (
"361 -7 OFFCURVE",
"437 67 OFFCURVE",
"437 190 CURVE SMOOTH",
"437 330 LINE SMOOTH",
"437 456 OFFCURVE",
"361 532 OFFCURVE",
"225 532 CURVE SMOOTH",
"89 532 OFFCURVE",
"12 456 OFFCURVE",
"12 330 CURVE SMOOTH",
"12 190 LINE SMOOTH",
"12 67 OFFCURVE",
"89 -7 OFFCURVE",
"225 -7 CURVE SMOOTH"
);
},
{
closed = 1;
nodes = (
"208 154 OFFCURVE",
"200 165 OFFCURVE",
"200 186 CURVE SMOOTH",
"200 339 LINE SMOOTH",
"200 360 OFFCURVE",
"208 371 OFFCURVE",
"225 371 CURVE SMOOTH",
"241 371 OFFCURVE",
"249 360 OFFCURVE",
"249 339 CURVE SMOOTH",
"249 186 LINE SMOOTH",
"249 165 OFFCURVE",
"241 154 OFFCURVE",
"225 154 CURVE SMOOTH"
);
}
);
width = 449;
}
);
leftKerningGroup = o;
rightKerningGroup = o;
unicode = 006F;
},
{
color = 3;
glyphname = r;
lastChange = "2017-01-14 20:55:16 +0000";
layers = (
{
layerId = "262880E7-CFE1-4BDA-902E-E24798F3240A";
paths = (
{
closed = 1;
nodes = (
"86 331 LINE",
"86 419 OFFCURVE",
"142 479 OFFCURVE",
"222 479 CURVE SMOOTH",
"248 479 OFFCURVE",
"262 474 OFFCURVE",
"277 466 CURVE",
"288 489 LINE",
"271 498 OFFCURVE",
"254 504 OFFCURVE",
"224 504 CURVE SMOOTH",
"131 504 OFFCURVE",
"71 438 OFFCURVE",
"71 331 CURVE"
);
},
{
closed = 1;
nodes = (
"86 0 LINE",
"86 500 LINE",
"64 500 LINE",
"64 0 LINE"
);
}
);
width = 288;
},
{
layerId = "4E2227F3-52E4-4048-A8EE-327B486EF0A4";
paths = (
{
closed = 1;
nodes = (
"204 273 LINE",
"204 294 OFFCURVE",
"216 318 OFFCURVE",
"235 327 CURVE SMOOTH",
"259 338 OFFCURVE",
"298 333 OFFCURVE",
"308 325 CURVE",
"337 510 LINE",
"328 519 OFFCURVE",
"312 527 OFFCURVE",
"287 527 CURVE SMOOTH",
"170 527 OFFCURVE",
"176 352 OFFCURVE",
"176 273 CURVE"
);
},
{
closed = 1;
nodes = (
"204 1 LINE",
"204 520 LINE",
"16 520 LINE",
"16 1 LINE"
);
}
);
width = 337;
},
{
associatedMasterId = "4E2227F3-52E4-4048-A8EE-327B486EF0A4";
layerId = "0231DC7A-BAB0-489B-A1F9-3A50B9D86C74";
name = "{100,100}";
paths = (
{
closed = 1;
nodes = (
"145 304 LINE",
"145 360 OFFCURVE",
"180 402 OFFCURVE",
"228 408 CURVE SMOOTH",
"251 411 OFFCURVE",
"266 405 OFFCURVE",
"275 400 CURVE",
"308 499 LINE",
"295 508 OFFCURVE",
"279 515 OFFCURVE",
"254 515 CURVE SMOOTH",
"157 515 OFFCURVE",
"105 412 OFFCURVE",
"105 304 CURVE"
);
},
{
closed = 1;
nodes = (
"145 0 LINE",
"145 510 LINE",
"46 510 LINE",
"46 0 LINE"
);
}
);
width = 308;
}
);
leftKerningGroup = n;
rightKerningGroup = r;
unicode = 0072;
},
{
color = 3;
glyphname = s;
lastChange = "2017-01-14 20:55:16 +0000";
layers = (
{
layerId = "262880E7-CFE1-4BDA-902E-E24798F3240A";
paths = (
{
closed = 1;
nodes = (
"298 -4 OFFCURVE",
"361 47 OFFCURVE",
"361 123 CURVE SMOOTH",
"361 212 OFFCURVE",
"277 238 OFFCURVE",
"199 264 CURVE SMOOTH",
"130 287 OFFCURVE",
"64 310 OFFCURVE",
"64 378 CURVE SMOOTH",
"64 441 OFFCURVE",
"117 483 OFFCURVE",
"199 483 CURVE SMOOTH",
"282 483 OFFCURVE",
"337 437 OFFCURVE",
"337 369 CURVE SMOOTH",
"337 344 LINE",
"359 344 LINE",
"359 369 LINE SMOOTH",
"359 450 OFFCURVE",
"296 504 OFFCURVE",
"200 504 CURVE SMOOTH",
"106 504 OFFCURVE",
"42 454 OFFCURVE",
"42 378 CURVE SMOOTH",
"42 294 OFFCURVE",
"118 268 OFFCURVE",
"194 243 CURVE SMOOTH",
"267 219 OFFCURVE",
"339 196 OFFCURVE",
"339 123 CURVE SMOOTH",
"339 59 OFFCURVE",
"284 17 OFFCURVE",
"202 17 CURVE SMOOTH",
"117 17 OFFCURVE",
"62 61 OFFCURVE",
"62 126 CURVE SMOOTH",
"62 157 LINE",
"40 157 LINE",
"40 126 LINE SMOOTH",
"40 48 OFFCURVE",
"105 -4 OFFCURVE",
"202 -4 CURVE SMOOTH"
);
}
);
width = 401;
},
{
layerId = "4E2227F3-52E4-4048-A8EE-327B486EF0A4";
paths = (
{
closed = 1;
nodes = (
"353 -8 OFFCURVE",
"427 43 OFFCURVE",
"427 144 CURVE SMOOTH",
"427 255 OFFCURVE",
"338 283 OFFCURVE",
"267 304 CURVE SMOOTH",
"240 312 OFFCURVE",
"197 327 OFFCURVE",
"197 357 CURVE SMOOTH",
"197 368 OFFCURVE",
"203 383 OFFCURVE",
"218 383 CURVE SMOOTH",
"230 383 OFFCURVE",
"240 374 OFFCURVE",
"240 357 CURVE SMOOTH",
"240 346 LINE",
"415 346 LINE",
"415 346 LINE SMOOTH",
"415 467 OFFCURVE",
"341 528 OFFCURVE",
"215 528 CURVE SMOOTH",
"94 528 OFFCURVE",
"17 471 OFFCURVE",
"17 362 CURVE SMOOTH",
"17 259 OFFCURVE",
"85 216 OFFCURVE",
"145 197 CURVE SMOOTH",
"190 183 OFFCURVE",
"238 176 OFFCURVE",
"238 149 CURVE SMOOTH",
"238 138 OFFCURVE",
"231 130 OFFCURVE",
"219 130 CURVE SMOOTH",
"207 130 OFFCURVE",
"190 139 OFFCURVE",
"190 161 CURVE SMOOTH",
"190 162 LINE",
"10 162 LINE",
"10 156 LINE",
"10 46 OFFCURVE",
"82 -8 OFFCURVE",
"219 -8 CURVE SMOOTH"
);
}
);
width = 437;
},
{
associatedMasterId = "4E2227F3-52E4-4048-A8EE-327B486EF0A4";
layerId = "85F9CC44-E494-4B9A-8AA4-6569A0BE88A1";
name = "{100,100}";
paths = (
{
closed = 1;
nodes = (
"323 -6 OFFCURVE",
"390 49 OFFCURVE",
"390 138 CURVE SMOOTH",
"390 234 OFFCURVE",
"312 276 OFFCURVE",
"230 300 CURVE SMOOTH",
"171 317 OFFCURVE",
"132 329 OFFCURVE",
"132 371 CURVE SMOOTH",
"132 411 OFFCURVE",
"166 429 OFFCURVE",
"206 429 CURVE SMOOTH",
"261 429 OFFCURVE",
"290 395 OFFCURVE",
"290 352 CURVE SMOOTH",
"290 344 LINE",
"383 344 LINE",
"383 354 LINE SMOOTH",
"383 453 OFFCURVE",
"318 515 OFFCURVE",
"207 515 CURVE SMOOTH",
"106 515 OFFCURVE",
"32 463 OFFCURVE",
"32 364 CURVE SMOOTH",
"32 262 OFFCURVE",
"110 234 OFFCURVE",
"185 210 CURVE SMOOTH",
"249 190 OFFCURVE",
"290 176 OFFCURVE",
"290 134 CURVE SMOOTH",
"290 106 OFFCURVE",
"272 80 OFFCURVE",
"217 80 CURVE SMOOTH",
"141 80 OFFCURVE",
"129 129 OFFCURVE",
"129 157 CURVE SMOOTH",
"129 161 LINE",
"29 161 LINE",
"29 144 LINE",
"29 51 OFFCURVE",
"103 -6 OFFCURVE",
"214 -6 CURVE SMOOTH"
);
}
);
width = 419;
}
);
leftKerningGroup = s;
rightKerningGroup = s;
unicode = 0073;
},
{
color = 3;
glyphname = t;
lastChange = "2017-01-14 20:55:46 +0000";
layers = (
{
layerId = "262880E7-CFE1-4BDA-902E-E24798F3240A";
paths = (
{
closed = 1;
nodes = (
"234 0 LINE",
"234 21 LINE",
"206 21 LINE SMOOTH",
"138 21 OFFCURVE",
"102 43 OFFCURVE",
"102 123 CURVE SMOOTH",
"102 621 LINE",
"80 621 LINE",
"80 124 LINE SMOOTH",
"80 23 OFFCURVE",
"132 0 OFFCURVE",
"206 0 CURVE SMOOTH"
);
},
{
closed = 1;
nodes = (
"233 479 LINE",
"233 500 LINE",
"8 500 LINE",
"8 479 LINE"
);
}
);
width = 250;
},
{
layerId = "4E2227F3-52E4-4048-A8EE-327B486EF0A4";
paths = (
{
closed = 1;
nodes = (
"276 7 LINE",
"276 169 LINE",
"259 169 LINE",
"241 168 OFFCURVE",
"228 173 OFFCURVE",
"228 199 CURVE",
"228 650 LINE",
"48 620 LINE",
"48 116 LINE",
"48 17 OFFCURVE",
"115 -11 OFFCURVE",
"213 0 CURVE SMOOTH"
);
},
{
closed = 1;
nodes = (
"291 390 LINE",
"291 520 LINE",
"0 520 LINE",
"0 390 LINE"
);
}
);
width = 295;
},
{
associatedMasterId = "4E2227F3-52E4-4048-A8EE-327B486EF0A4";
layerId = "5104D358-2B42-4ACD-AAB6-4ADE7FFA9119";
name = "{100,100}";
paths = (
{
closed = 1;
nodes = (
"266 0 LINE",
"266 92 LINE",
"244 92 LINE SMOOTH",
"192 92 OFFCURVE",
"172 114 OFFCURVE",
"172 169 CURVE SMOOTH",
"172 630 LINE",
"72 610 LINE",
"72 152 LINE SMOOTH",
"72 42 OFFCURVE",
"116 0 OFFCURVE",
"218 0 CURVE SMOOTH"
);
},
{
closed = 1;
nodes = (
"270 417 LINE",
"270 509 LINE",
"10 509 LINE",
"10 417 LINE"
);
}
);
width = 282;
}
);
leftKerningGroup = t;
rightKerningGroup = t;
unicode = 0074;
},
{
glyphname = v;
lastChange = "2017-01-14 20:55:16 +0000";
layers = (
{
layerId = "262880E7-CFE1-4BDA-902E-E24798F3240A";
paths = (
{
closed = 1;
nodes = (
"213 0 LINE",
"379 500 LINE",
"354 500 LINE",
"202 33 LINE",
"49 500 LINE",
"24 500 LINE",
"191 0 LINE"
);
}
);
width = 411;
},
{
layerId = "4E2227F3-52E4-4048-A8EE-327B486EF0A4";
paths = (
{
closed = 1;
nodes = (
"339 -2 LINE",
"464 518 LINE",
"260 520 LINE",
"235 256 LINE",
"210 520 LINE",
"6 520 LINE",
"131 0 LINE"
);
}
);
width = 472;
}
);
leftKerningGroup = v;
rightKerningGroup = v;
unicode = 0076;
},
{
glyphname = w;
lastChange = "2017-01-14 20:55:16 +0000";
layers = (
{
layerId = "262880E7-CFE1-4BDA-902E-E24798F3240A";
paths = (
{
closed = 1;
nodes = (
"184 0 LINE",
"311 461 LINE",
"439 0 LINE",
"461 0 LINE",
"601 500 LINE",
"579 500 LINE",
"450 27 LINE",
"322 500 LINE",
"300 500 LINE",
"173 27 LINE",
"46 500 LINE",
"24 500 LINE",
"162 0 LINE"
);
}
);
width = 633;
},
{
layerId = "4E2227F3-52E4-4048-A8EE-327B486EF0A4";
paths = (
{
closed = 1;
nodes = (
"291 -2 LINE",
"321 211 LINE",
"347 0 LINE",
"531 -2 LINE",
"643 518 LINE",
"465 520 LINE",
"438 256 LINE",
"404 520 LINE",
"243 520 LINE",
"215 256 LINE",
"187 520 LINE",
"6 520 LINE",
"117 0 LINE"
);
}
);
width = 651;
},
{
associatedMasterId = "4E2227F3-52E4-4048-A8EE-327B486EF0A4";
layerId = "6BA1A2A9-BE91-41BC-8363-5886C86B1880";
name = "{100,100}";
paths = (
{
closed = 1;
nodes = (
"242 -1 LINE",
"312 361 LINE",
"388 0 LINE",
"483 -1 LINE",
"608 508 LINE",
"504 509 LINE",
"436 150 LINE",
"356 509 LINE",
"261 509 LINE",
"192 150 LINE",
"121 509 LINE",
"18 509 LINE",
"142 0 LINE"
);
}
);
width = 651;
}
);
leftKerningGroup = v;
rightKerningGroup = v;
unicode = 0077;
},
{
glyphname = x;
lastChange = "2017-01-14 20:55:16 +0000";
layers = (
{
layerId = "262880E7-CFE1-4BDA-902E-E24798F3240A";
paths = (
{
closed = 1;
nodes = (
"49 0 LINE",
"206 233 LINE",
"362 0 LINE",
"387 0 LINE",
"217 250 LINE",
"387 500 LINE",
"362 500 LINE",
"206 267 LINE",
"49 500 LINE",
"24 500 LINE",
"195 250 LINE",
"24 0 LINE"
);
}
);
width = 419;
},
{
layerId = "4E2227F3-52E4-4048-A8EE-327B486EF0A4";
paths = (
{
closed = 1;
nodes = (
"200 0 LINE",
"231 105 LINE",
"262 0 LINE",
"456 0 LINE",
"326 260 LINE",
"456 520 LINE",
"262 520 LINE",
"231 420 LINE",
"200 520 LINE",
"6 520 LINE",
"136 260 LINE",
"6 0 LINE"
);
}
);
width = 464;
}
);
leftKerningGroup = x;
unicode = 0078;
},
{
glyphname = y;
lastChange = "2017-01-14 20:55:16 +0000";
layers = (
{
layerId = "262880E7-CFE1-4BDA-902E-E24798F3240A";
paths = (
{
closed = 1;
nodes = (
"65 -200 LINE",
"128 -200 OFFCURVE",
"154 -185 OFFCURVE",
"195 -62 CURVE SMOOTH",
"383 500 LINE",
"361 500 LINE",
"205 27 LINE",
"46 500 LINE",
"24 500 LINE",
"194 0 LINE",
"148 -147 OFFCURVE",
"136 -178 OFFCURVE",
"65 -179 CURVE",
"51 -179 LINE",
"51 -200 LINE"
);
}
);
width = 415;
},
{
layerId = "4E2227F3-52E4-4048-A8EE-327B486EF0A4";
paths = (
{
closed = 1;
nodes = (
"40 -199 LINE",
"247 -199 OFFCURVE",
"284 -140 OFFCURVE",
"323 -2 CURVE",
"453 518 LINE",
"251 520 LINE",
"230 252 LINE",
"207 520 LINE",
"6 520 LINE",
"135 0 LINE",
"143 -40 OFFCURVE",
"105 -45 OFFCURVE",
"37 -45 CURVE",
"28 -45 LINE",
"28 -199 LINE"
);
}
);
width = 461;
}
);
leftKerningGroup = v;
rightKerningGroup = v;
unicode = 0079;
},
{
glyphname = z;
lastChange = "2017-01-14 20:55:16 +0000";
layers = (
{
layerId = "262880E7-CFE1-4BDA-902E-E24798F3240A";
paths = (
{
closed = 1;
nodes = (
"367 0 LINE",
"367 21 LINE",
"56 21 LINE",
"370 479 LINE",
"370 500 LINE",
"35 500 LINE",
"35 479 LINE",
"346 479 LINE",
"32 21 LINE",
"32 0 LINE"
);
}
);
width = 410;
},
{
layerId = "4E2227F3-52E4-4048-A8EE-327B486EF0A4";
paths = (
{
closed = 1;
nodes = (
"373 0 LINE",
"373 170 LINE",
"222 170 LINE",
"364 350 LINE",
"364 520 LINE",
"15 520 LINE",
"15 350 LINE",
"140 350 LINE",
"8 170 LINE",
"8 0 LINE"
);
}
);
width = 383;
}
);
leftKerningGroup = z;
unicode = 007A;
},
{
glyphname = a.alt;
lastChange = "2017-01-13 18:24:18 +0000";
layers = (
{
components = (
{
name = b.bowl;
transform = "{-1, 0, 0, 1, 403, 0}";
}
);
layerId = "262880E7-CFE1-4BDA-902E-E24798F3240A";
paths = (
{
closed = 1;
nodes = (
"406 0 LINE",
"406 500 LINE",
"384 500 LINE",
"384 0 LINE"
);
}
);
width = 455;
},
{
components = (
{
name = b.bowl;
transform = "{-1, 0, 0, 1, 281, 0}";
}
);
layerId = "4E2227F3-52E4-4048-A8EE-327B486EF0A4";
paths = (
{
closed = 1;
nodes = (
"433 0 LINE",
"433 520 LINE",
"245 520 LINE",
"245 0 LINE"
);
}
);
width = 449;
}
);
leftKerningGroup = a;
rightKerningGroup = a;
},
{
color = 3;
export = 0;
glyphname = b.bowl;
lastChange = "2017-01-14 18:30:11 +0000";
layers = (
{
layerId = "262880E7-CFE1-4BDA-902E-E24798F3240A";
paths = (
{
closed = 1;
nodes = (
"269 -8 OFFCURVE",
"332 55 OFFCURVE",
"332 158 CURVE SMOOTH",
"332 342 LINE SMOOTH",
"332 445 OFFCURVE",
"271 508 OFFCURVE",
"167 508 CURVE SMOOTH",
"63 508 OFFCURVE",
"0 441 OFFCURVE",
"0 342 CURVE SMOOTH",
"0 158 LINE SMOOTH",
"0 53 OFFCURVE",
"68 -8 OFFCURVE",
"165 -8 CURVE SMOOTH"
);
},
{
closed = 1;
nodes = (
"77 13 OFFCURVE",
"19 67 OFFCURVE",
"19 155 CURVE SMOOTH",
"19 345 LINE SMOOTH",
"19 433 OFFCURVE",
"77 487 OFFCURVE",
"165 487 CURVE SMOOTH",
"256 487 OFFCURVE",
"310 433 OFFCURVE",
"310 345 CURVE SMOOTH",
"310 155 LINE SMOOTH",
"310 67 OFFCURVE",
"256 13 OFFCURVE",
"165 13 CURVE SMOOTH"
);
}
);
width = 332;
},
{
layerId = "4E2227F3-52E4-4048-A8EE-327B486EF0A4";
paths = (
{
closed = 1;
nodes = (
"237 -8 OFFCURVE",
"267 56 OFFCURVE",
"267 177 CURVE SMOOTH",
"267 343 LINE SMOOTH",
"267 464 OFFCURVE",
"237 528 OFFCURVE",
"126 528 CURVE SMOOTH",
"91 528 OFFCURVE",
"0 513 OFFCURVE",
"0 323 CURVE SMOOTH",
"0 197 LINE",
"-4 7 OFFCURVE",
"91 -8 OFFCURVE",
"126 -8 CURVE SMOOTH"
);
},
{
closed = 1;
nodes = (
"42 153 OFFCURVE",
"34 164 OFFCURVE",
"34 186 CURVE SMOOTH",
"34 334 LINE SMOOTH",
"34 356 OFFCURVE",
"42 367 OFFCURVE",
"56 367 CURVE SMOOTH",
"71 367 OFFCURVE",
"79 356 OFFCURVE",
"79 334 CURVE SMOOTH",
"79 186 LINE SMOOTH",
"79 164 OFFCURVE",
"71 153 OFFCURVE",
"56 153 CURVE SMOOTH"
);
}
);
width = 267;
},
{
associatedMasterId = "262880E7-CFE1-4BDA-902E-E24798F3240A";
layerId = "49A4F55C-B681-47B2-A21D-C788909AF142";
name = "{100,100}";
paths = (
{
closed = 1;
nodes = (
"245 -8 OFFCURVE",
"304 55 OFFCURVE",
"304 179 CURVE SMOOTH",
"304 331 LINE SMOOTH",
"304 454 OFFCURVE",
"244 517 OFFCURVE",
"142 517 CURVE SMOOTH",
"37 517 OFFCURVE",
"-24 440 OFFCURVE",
"-24 310 CURVE SMOOTH",
"-24 199 LINE SMOOTH",
"-24 68 OFFCURVE",
"38 -8 OFFCURVE",
"142 -8 CURVE SMOOTH"
);
},
{
closed = 1;
nodes = (
"60 84 OFFCURVE",
"26 119 OFFCURVE",
"26 176 CURVE SMOOTH",
"26 334 LINE SMOOTH",
"26 390 OFFCURVE",
"60 425 OFFCURVE",
"116 425 CURVE SMOOTH",
"171 425 OFFCURVE",
"204 390 OFFCURVE",
"204 334 CURVE SMOOTH",
"204 176 LINE SMOOTH",
"204 119 OFFCURVE",
"171 84 OFFCURVE",
"116 84 CURVE SMOOTH"
);
}
);
width = 304;
}
);
},
{
color = 3;
export = 0;
glyphname = n.curve;
lastChange = "2017-01-13 19:10:56 +0000";
layers = (
{
layerId = "262880E7-CFE1-4BDA-902E-E24798F3240A";
paths = (
{
closed = 1;
nodes = (
"324 0 LINE",
"324 347 LINE SMOOTH",
"324 446 OFFCURVE",
"259 507 OFFCURVE",
"166 507 CURVE SMOOTH",
"66 507 OFFCURVE",
"0 448 OFFCURVE",
"0 346 CURVE",
"18 346 LINE",
"18 433 OFFCURVE",
"75 486 OFFCURVE",
"163 486 CURVE SMOOTH",
"245 486 OFFCURVE",
"302 432 OFFCURVE",
"302 344 CURVE SMOOTH",
"302 0 LINE"
);
}
);
width = 324;
},
{
layerId = "4E2227F3-52E4-4048-A8EE-327B486EF0A4";
paths = (
{
closed = 1;
nodes = (
"268 0 LINE",
"268 348 LINE SMOOTH",
"268 459 OFFCURVE",
"227 528 OFFCURVE",
"126 528 CURVE SMOOTH",
"89 528 OFFCURVE",
"-1 515 OFFCURVE",
"0 335 CURVE",
"36 335 LINE",
"36 356 OFFCURVE",
"44 367 OFFCURVE",
"59 367 CURVE SMOOTH",
"73 367 OFFCURVE",
"80 356 OFFCURVE",
"80 335 CURVE SMOOTH",
"80 0 LINE"
);
}
);
width = 268;
},
{
associatedMasterId = "262880E7-CFE1-4BDA-902E-E24798F3240A";
layerId = "76FE2A8C-3AE3-4ABC-8862-EBFED6E3F7E3";
name = "Dec 31 16, 20:15";
paths = (
{
closed = 1;
nodes = (
"298 0 LINE",
"298 348 LINE SMOOTH",
"298 452 OFFCURVE",
"226 517 OFFCURVE",
"138 517 CURVE SMOOTH",
"40 517 OFFCURVE",
"-6 463 OFFCURVE",
"-6 308 CURVE",
"26 335 LINE",
"26 391 OFFCURVE",
"61 425 OFFCURVE",
"113 425 CURVE SMOOTH",
"165 425 OFFCURVE",
"199 391 OFFCURVE",
"199 334 CURVE SMOOTH",
"199 0 LINE"
);
}
);
width = 298;
},
{
associatedMasterId = "262880E7-CFE1-4BDA-902E-E24798F3240A";
layerId = "62D99C91-7AA4-4D45-9BEF-EDD47982F75D";
name = "{100,100}";
paths = (
{
closed = 1;
nodes = (
"298 4 LINE",
"298 346 LINE SMOOTH",
"298 456 OFFCURVE",
"230 521 OFFCURVE",
"138 521 CURVE SMOOTH",
"40 521 OFFCURVE",
"-17 458 OFFCURVE",
"-17 339 CURVE",
"26 339 LINE",
"26 395 OFFCURVE",
"61 429 OFFCURVE",
"113 429 CURVE SMOOTH",
"165 429 OFFCURVE",
"199 395 OFFCURVE",
"199 338 CURVE SMOOTH",
"199 4 LINE"
);
}
);
width = 298;
}
);
},
{
glyphname = zero;
lastChange = "2017-01-14 20:55:16 +0000";
layers = (
{
layerId = "262880E7-CFE1-4BDA-902E-E24798F3240A";
paths = (
{
closed = 1;
nodes = (
"330 -9 OFFCURVE",
"399 56 OFFCURVE",
"399 154 CURVE SMOOTH",
"399 546 LINE SMOOTH",
"399 644 OFFCURVE",
"330 709 OFFCURVE",
"232 709 CURVE SMOOTH",
"134 709 OFFCURVE",
"64 644 OFFCURVE",
"64 546 CURVE SMOOTH",
"64 154 LINE SMOOTH",
"64 56 OFFCURVE",
"134 -9 OFFCURVE",
"232 -9 CURVE SMOOTH"
);
},
{
closed = 1;
nodes = (
"147 12 OFFCURVE",
"86 68 OFFCURVE",
"86 152 CURVE SMOOTH",
"86 548 LINE SMOOTH",
"86 632 OFFCURVE",
"147 688 OFFCURVE",
"232 688 CURVE SMOOTH",
"317 688 OFFCURVE",
"377 632 OFFCURVE",
"377 548 CURVE SMOOTH",
"377 152 LINE SMOOTH",
"377 68 OFFCURVE",
"317 12 OFFCURVE",
"232 12 CURVE SMOOTH"
);
}
);
width = 463;
},
{
layerId = "4E2227F3-52E4-4048-A8EE-327B486EF0A4";
paths = (
{
closed = 1;
nodes = (
"363 -8 OFFCURVE",
"450 78 OFFCURVE",
"450 208 CURVE SMOOTH",
"450 492 LINE SMOOTH",
"450 622 OFFCURVE",
"363 708 OFFCURVE",
"233 708 CURVE SMOOTH",
"103 708 OFFCURVE",
"16 622 OFFCURVE",
"16 492 CURVE SMOOTH",
"16 208 LINE SMOOTH",
"16 78 OFFCURVE",
"103 -8 OFFCURVE",
"233 -8 CURVE SMOOTH"
);
},
{
closed = 1;
nodes = (
"216 162 OFFCURVE",
"204 180 OFFCURVE",
"204 208 CURVE SMOOTH",
"204 492 LINE SMOOTH",
"204 520 OFFCURVE",
"216 538 OFFCURVE",
"233 538 CURVE SMOOTH",
"250 538 OFFCURVE",
"262 520 OFFCURVE",
"262 492 CURVE SMOOTH",
"262 208 LINE SMOOTH",
"262 180 OFFCURVE",
"250 162 OFFCURVE",
"233 162 CURVE SMOOTH"
);
}
);
width = 466;
}
);
unicode = 0030;
},
{
glyphname = one;
lastChange = "2017-01-14 20:55:16 +0000";
layers = (
{
layerId = "262880E7-CFE1-4BDA-902E-E24798F3240A";
paths = (
{
closed = 1;
nodes = (
"183 0 LINE",
"183 700 LINE",
"161 700 LINE",
"161 0 LINE"
);
},
{
closed = 1;
nodes = (
"72 637 LINE",
"161 669 LINE",
"161 700 LINE",
"72 658 LINE"
);
}
);
width = 263;
},
{
layerId = "4E2227F3-52E4-4048-A8EE-327B486EF0A4";
paths = (
{
closed = 1;
nodes = (
"253 0 LINE",
"253 700 LINE",
"65 700 LINE",
"65 0 LINE"
);
},
{
closed = 1;
nodes = (
"18 529 LINE",
"65 529 LINE",
"65 700 LINE",
"18 673 LINE"
);
}
);
width = 273;
}
);
unicode = 0031;
},
{
glyphname = two;
lastChange = "2017-01-14 20:55:16 +0000";
layers = (
{
layerId = "262880E7-CFE1-4BDA-902E-E24798F3240A";
paths = (
{
closed = 1;
nodes = (
"397 0 LINE",
"397 21 LINE",
"82 21 LINE",
"296 323 LINE SMOOTH",
"358 410 OFFCURVE",
"389 485 OFFCURVE",
"389 544 CURVE SMOOTH",
"389 642 OFFCURVE",
"321 708 OFFCURVE",
"220 708 CURVE SMOOTH",
"122 708 OFFCURVE",
"56 642 OFFCURVE",
"56 544 CURVE SMOOTH",
"56 500 LINE",
"79 500 LINE",
"79 544 LINE",
"78 630 OFFCURVE",
"134 687 OFFCURVE",
"220 687 CURVE SMOOTH",
"308 687 OFFCURVE",
"367 630 OFFCURVE",
"367 544 CURVE SMOOTH",
"367 490 OFFCURVE",
"337 420 OFFCURVE",
"277 335 CURVE SMOOTH",
"56 21 LINE",
"56 0 LINE"
);
}
);
width = 437;
},
{
layerId = "4E2227F3-52E4-4048-A8EE-327B486EF0A4";
paths = (
{
closed = 1;
nodes = (
"453 0 LINE",
"453 170 LINE",
"275 170 LINE",
"393 311 LINE",
"442 382 OFFCURVE",
"447 425 OFFCURVE",
"447 520 CURVE SMOOTH",
"447 639 OFFCURVE",
"356 708 OFFCURVE",
"230 708 CURVE SMOOTH",
"108 708 OFFCURVE",
"21 640 OFFCURVE",
"14 520 CURVE",
"14 455 LINE",
"204 455 LINE",
"204 503 LINE",
"204 524 OFFCURVE",
"215 538 OFFCURVE",
"231 538 CURVE SMOOTH",
"246 538 OFFCURVE",
"257 524 OFFCURVE",
"257 503 CURVE SMOOTH",
"257 457 OFFCURVE",
"244 423 OFFCURVE",
"193 361 CURVE",
"18 170 LINE",
"18 0 LINE"
);
}
);
width = 463;
}
);
unicode = 0032;
},
{
glyphname = three;
lastChange = "2017-01-14 20:55:16 +0000";
layers = (
{
layerId = "262880E7-CFE1-4BDA-902E-E24798F3240A";
paths = (
{
closed = 1;
nodes = (
"325 -8 OFFCURVE",
"391 58 OFFCURVE",
"391 158 CURVE SMOOTH",
"391 262 LINE SMOOTH",
"391 364 OFFCURVE",
"331 433 OFFCURVE",
"212 426 CURVE",
"213 420 LINE",
"394 679 LINE",
"394 700 LINE",
"61 700 LINE",
"61 679 LINE",
"368 679 LINE",
"182 416 LINE",
"193 404 LINE",
"203 406 OFFCURVE",
"213 407 OFFCURVE",
"224 407 CURVE SMOOTH",
"311 407 OFFCURVE",
"369 350 OFFCURVE",
"369 265 CURVE SMOOTH",
"369 155 LINE SMOOTH",
"369 70 OFFCURVE",
"311 13 OFFCURVE",
"224 13 CURVE SMOOTH",
"137 13 OFFCURVE",
"78 70 OFFCURVE",
"78 155 CURVE SMOOTH",
"78 201 LINE",
"56 201 LINE",
"56 158 LINE SMOOTH",
"56 58 OFFCURVE",
"123 -8 OFFCURVE",
"224 -8 CURVE SMOOTH"
);
}
);
width = 458;
},
{
layerId = "4E2227F3-52E4-4048-A8EE-327B486EF0A4";
paths = (
{
closed = 1;
nodes = (
"353 -7 OFFCURVE",
"438 59 OFFCURVE",
"438 172 CURVE SMOOTH",
"438 276 LINE SMOOTH",
"438 368 OFFCURVE",
"368 440 OFFCURVE",
"286 410 CURVE",
"286 379 LINE",
"438 530 LINE",
"438 700 LINE",
"47 700 LINE",
"47 530 LINE",
"212 530 LINE",
"84 417 LINE",
"185 312 LINE",
"201 333 OFFCURVE",
"210 340 OFFCURVE",
"226 340 CURVE SMOOTH",
"240 340 OFFCURVE",
"250 327 OFFCURVE",
"250 308 CURVE SMOOTH",
"250 185 LINE SMOOTH",
"250 166 OFFCURVE",
"240 153 OFFCURVE",
"226 153 CURVE SMOOTH",
"212 153 OFFCURVE",
"202 166 OFFCURVE",
"202 185 CURVE SMOOTH",
"202 232 LINE",
"14 232 LINE",
"14 172 LINE SMOOTH",
"14 59 OFFCURVE",
"99 -7 OFFCURVE",
"226 -7 CURVE SMOOTH"
);
}
);
width = 454;
}
);
unicode = 0033;
},
{
glyphname = four;
lastChange = "2017-01-14 20:55:16 +0000";
layers = (
{
layerId = "262880E7-CFE1-4BDA-902E-E24798F3240A";
paths = (
{
closed = 1;
nodes = (
"320 -7 LINE",
"342 -7 LINE",
"342 415 LINE",
"320 415 LINE"
);
},
{
closed = 1;
nodes = (
"55 222 LINE",
"269 700 LINE",
"245 700 LINE",
"32 222 LINE",
"32 202 LINE",
"395 202 LINE",
"395 222 LINE"
);
}
);
width = 427;
},
{
layerId = "4E2227F3-52E4-4048-A8EE-327B486EF0A4";
paths = (
{
closed = 1;
nodes = (
"283 0 LINE",
"471 0 LINE",
"471 426 LINE",
"283 426 LINE"
);
},
{
closed = 1;
nodes = (
"226 337 LINE",
"333 700 LINE",
"136 700 LINE",
"8 302 LINE",
"8 167 LINE",
"522 167 LINE",
"522 337 LINE"
);
}
);
width = 530;
}
);
unicode = 0034;
},
{
glyphname = five;
lastChange = "2017-01-13 18:24:18 +0000";
layers = (
{
layerId = "262880E7-CFE1-4BDA-902E-E24798F3240A";
paths = (
{
closed = 1;
nodes = (
"318 -9 OFFCURVE",
"382 57 OFFCURVE",
"382 157 CURVE SMOOTH",
"382 262 LINE SMOOTH",
"382 362 OFFCURVE",
"318 428 OFFCURVE",
"222 428 CURVE SMOOTH",
"138 428 OFFCURVE",
"77 381 OFFCURVE",
"77 311 CURVE",
"77 307 LINE",
"96 307 LINE",
"96 311 LINE SMOOTH",
"96 369 OFFCURVE",
"151 407 OFFCURVE",
"222 407 CURVE SMOOTH",
"305 407 OFFCURVE",
"360 350 OFFCURVE",
"360 265 CURVE SMOOTH",
"360 154 LINE SMOOTH",
"360 69 OFFCURVE",
"305 12 OFFCURVE",
"222 12 CURVE SMOOTH",
"140 12 OFFCURVE",
"85 69 OFFCURVE",
"85 154 CURVE SMOOTH",
"85 158 LINE",
"63 158 LINE",
"63 157 LINE SMOOTH",
"63 57 OFFCURVE",
"127 -9 OFFCURVE",
"222 -9 CURVE SMOOTH"
);
},
{
closed = 1;
nodes = (
"96 310 LINE",
"98 679 LINE",
"379 679 LINE",
"379 700 LINE",
"76 700 LINE",
"77 310 LINE"
);
}
);
width = 429;
},
{
layerId = "4E2227F3-52E4-4048-A8EE-327B486EF0A4";
paths = (
{
closed = 1;
nodes = (
"349 -8 OFFCURVE",
"434 58 OFFCURVE",
"434 171 CURVE SMOOTH",
"434 260 LINE SMOOTH",
"434 374 OFFCURVE",
"375 444 OFFCURVE",
"280 444 CURVE SMOOTH",
"170 444 OFFCURVE",
"139 344 OFFCURVE",
"139 260 CURVE",
"139 256 LINE",
"196 256 LINE",
"196 257 LINE SMOOTH",
"196 272 OFFCURVE",
"206 282 OFFCURVE",
"221 282 CURVE SMOOTH",
"236 282 OFFCURVE",
"246 269 OFFCURVE",
"246 250 CURVE SMOOTH",
"246 184 LINE SMOOTH",
"246 165 OFFCURVE",
"236 152 OFFCURVE",
"221 152 CURVE SMOOTH",
"207 152 OFFCURVE",
"197 165 OFFCURVE",
"197 184 CURVE SMOOTH",
"197 185 LINE",
"9 185 LINE",
"9 171 LINE SMOOTH",
"9 58 OFFCURVE",
"92 -8 OFFCURVE",
"221 -8 CURVE SMOOTH"
);
},
{
closed = 1;
nodes = (
"196 254 LINE",
"196 530 LINE",
"432 530 LINE",
"432 700 LINE",
"8 700 LINE",
"8 254 LINE"
);
}
);
width = 443;
}
);
unicode = 0035;
},
{
glyphname = six;
lastChange = "2017-01-14 20:55:16 +0000";
layers = (
{
layerId = "262880E7-CFE1-4BDA-902E-E24798F3240A";
paths = (
{
closed = 1;
nodes = (
"343 -8 OFFCURVE",
"409 58 OFFCURVE",
"409 158 CURVE SMOOTH",
"409 262 LINE SMOOTH",
"409 362 OFFCURVE",
"343 428 OFFCURVE",
"241 428 CURVE SMOOTH",
"171 428 OFFCURVE",
"117 395 OFFCURVE",
"91 340 CURVE",
"94 340 LINE",
"94 545 LINE SMOOTH",
"94 630 OFFCURVE",
"153 687 OFFCURVE",
"241 687 CURVE SMOOTH",
"329 687 OFFCURVE",
"387 630 OFFCURVE",
"387 545 CURVE SMOOTH",
"387 500 LINE",
"409 500 LINE",
"409 542 LINE SMOOTH",
"409 642 OFFCURVE",
"343 708 OFFCURVE",
"241 708 CURVE SMOOTH",
"139 708 OFFCURVE",
"72 642 OFFCURVE",
"72 542 CURVE SMOOTH",
"72 158 LINE SMOOTH",
"72 58 OFFCURVE",
"139 -8 OFFCURVE",
"241 -8 CURVE SMOOTH"
);
},
{
closed = 1;
nodes = (
"153 13 OFFCURVE",
"94 70 OFFCURVE",
"94 155 CURVE SMOOTH",
"94 265 LINE SMOOTH",
"94 350 OFFCURVE",
"153 407 OFFCURVE",
"241 407 CURVE SMOOTH",
"329 407 OFFCURVE",
"387 350 OFFCURVE",
"387 265 CURVE SMOOTH",
"387 155 LINE SMOOTH",
"387 70 OFFCURVE",
"329 13 OFFCURVE",
"241 13 CURVE SMOOTH"
);
}
);
width = 465;
},
{
layerId = "4E2227F3-52E4-4048-A8EE-327B486EF0A4";
paths = (
{
closed = 1;
nodes = (
"357 -8 OFFCURVE",
"442 58 OFFCURVE",
"442 171 CURVE SMOOTH",
"442 260 LINE SMOOTH",
"442 390 OFFCURVE",
"366 444 OFFCURVE",
"286 444 CURVE SMOOTH",
"172 444 OFFCURVE",
"166 339 OFFCURVE",
"167 327 CURVE",
"206 327 LINE",
"206 511 LINE SMOOTH",
"206 530 OFFCURVE",
"216 543 OFFCURVE",
"230 543 CURVE SMOOTH",
"244 543 OFFCURVE",
"254 530 OFFCURVE",
"254 511 CURVE SMOOTH",
"254 470 LINE",
"442 470 LINE",
"442 524 LINE SMOOTH",
"442 638 OFFCURVE",
"357 708 OFFCURVE",
"230 708 CURVE SMOOTH",
"103 708 OFFCURVE",
"18 638 OFFCURVE",
"18 524 CURVE SMOOTH",
"18 171 LINE SMOOTH",
"18 58 OFFCURVE",
"103 -8 OFFCURVE",
"230 -8 CURVE SMOOTH"
);
},
{
closed = 1;
nodes = (
"216 152 OFFCURVE",
"206 165 OFFCURVE",
"206 184 CURVE SMOOTH",
"206 252 LINE SMOOTH",
"206 271 OFFCURVE",
"216 284 OFFCURVE",
"230 284 CURVE SMOOTH",
"244 284 OFFCURVE",
"254 271 OFFCURVE",
"254 252 CURVE SMOOTH",
"254 184 LINE SMOOTH",
"254 165 OFFCURVE",
"244 152 OFFCURVE",
"230 152 CURVE SMOOTH"
);
}
);
width = 456;
}
);
unicode = 0036;
},
{
glyphname = seven;
lastChange = "2017-01-14 20:55:16 +0000";
layers = (
{
layerId = "262880E7-CFE1-4BDA-902E-E24798F3240A";
paths = (
{
closed = 1;
nodes = (
"137 0 LINE",
"365 679 LINE",
"365 700 LINE",
"24 700 LINE",
"24 679 LINE",
"341 679 LINE",
"112 0 LINE"
);
}
);
width = 389;
},
{
layerId = "4E2227F3-52E4-4048-A8EE-327B486EF0A4";
paths = (
{
closed = 1;
nodes = (
"232 0 LINE",
"399 530 LINE",
"399 700 LINE",
"6 700 LINE",
"6 530 LINE",
"201 530 LINE",
"36 0 LINE"
);
}
);
width = 405;
}
);
unicode = 0037;
},
{
glyphname = eight;
lastChange = "2017-01-14 20:55:16 +0000";
layers = (
{
layerId = "262880E7-CFE1-4BDA-902E-E24798F3240A";
paths = (
{
closed = 1;
nodes = (
"337 -18 OFFCURVE",
"404 54 OFFCURVE",
"404 161 CURVE SMOOTH",
"404 215 LINE SMOOTH",
"404 322 OFFCURVE",
"337 394 OFFCURVE",
"235 394 CURVE SMOOTH",
"133 394 OFFCURVE",
"64 322 OFFCURVE",
"64 215 CURVE SMOOTH",
"64 161 LINE SMOOTH",
"64 54 OFFCURVE",
"133 -18 OFFCURVE",
"235 -18 CURVE SMOOTH"
);
},
{
closed = 1;
nodes = (
"146 2 OFFCURVE",
"86 66 OFFCURVE",
"86 161 CURVE SMOOTH",
"86 215 LINE SMOOTH",
"86 311 OFFCURVE",
"146 375 OFFCURVE",
"235 375 CURVE SMOOTH",
"324 375 OFFCURVE",
"382 311 OFFCURVE",
"382 215 CURVE SMOOTH",
"382 161 LINE SMOOTH",
"382 66 OFFCURVE",
"324 2 OFFCURVE",
"235 2 CURVE SMOOTH"
);
},
{
closed = 1;
nodes = (
"337 375 OFFCURVE",
"402 439 OFFCURVE",
"402 534 CURVE SMOOTH",
"402 549 LINE SMOOTH",
"402 644 OFFCURVE",
"337 708 OFFCURVE",
"235 708 CURVE SMOOTH",
"133 708 OFFCURVE",
"66 644 OFFCURVE",
"66 549 CURVE SMOOTH",
"66 534 LINE SMOOTH",
"66 439 OFFCURVE",
"133 375 OFFCURVE",
"235 375 CURVE SMOOTH"
);
},
{
closed = 1;
nodes = (
"146 395 OFFCURVE",
"88 451 OFFCURVE",
"88 534 CURVE SMOOTH",
"88 549 LINE SMOOTH",
"88 633 OFFCURVE",
"146 689 OFFCURVE",
"235 689 CURVE SMOOTH",
"324 689 OFFCURVE",
"380 633 OFFCURVE",
"380 549 CURVE SMOOTH",
"380 534 LINE SMOOTH",
"380 451 OFFCURVE",
"324 395 OFFCURVE",
"235 395 CURVE SMOOTH"
);
}
);
width = 468;
},
{
layerId = "4E2227F3-52E4-4048-A8EE-327B486EF0A4";
paths = (
{
closed = 1;
nodes = (
"383 -8 OFFCURVE",
"469 69 OFFCURVE",
"469 194 CURVE SMOOTH",
"469 241 LINE SMOOTH",
"469 427 OFFCURVE",
"278 403 OFFCURVE",
"243 403 CURVE SMOOTH",
"208 403 OFFCURVE",
"17 427 OFFCURVE",
"17 241 CURVE SMOOTH",
"17 195 LINE SMOOTH",
"17 69 OFFCURVE",
"103 -8 OFFCURVE",
"243 -8 CURVE SMOOTH"
);
},
{
closed = 1;
nodes = (
"219 152 OFFCURVE",
"205 171 OFFCURVE",
"205 203 CURVE SMOOTH",
"205 237 LINE SMOOTH",
"205 269 OFFCURVE",
"219 288 OFFCURVE",
"243 288 CURVE",
"267 288 OFFCURVE",
"281 269 OFFCURVE",
"281 237 CURVE SMOOTH",
"281 203 LINE SMOOTH",
"281 171 OFFCURVE",
"267 152 OFFCURVE",
"243 152 CURVE SMOOTH"
);
},
{
closed = 1;
nodes = (
"343 294 OFFCURVE",
"470 339 OFFCURVE",
"470 486 CURVE SMOOTH",
"470 525 LINE SMOOTH",
"470 650 OFFCURVE",
"384 708 OFFCURVE",
"243 708 CURVE SMOOTH",
"103 708 OFFCURVE",
"16 651 OFFCURVE",
"16 525 CURVE SMOOTH",
"16 487 LINE SMOOTH",
"16 339 OFFCURVE",
"133 294 OFFCURVE",
"243 294 CURVE SMOOTH"
);
},
{
closed = 1;
nodes = (
"219 422 OFFCURVE",
"204 441 OFFCURVE",
"204 473 CURVE SMOOTH",
"204 497 LINE SMOOTH",
"204 529 OFFCURVE",
"219 548 OFFCURVE",
"243 548 CURVE SMOOTH",
"267 548 OFFCURVE",
"282 529 OFFCURVE",
"282 497 CURVE SMOOTH",
"282 473 LINE SMOOTH",
"282 441 OFFCURVE",
"267 422 OFFCURVE",
"243 422 CURVE SMOOTH"
);
}
);
width = 486;
}
);
unicode = 0038;
},
{
glyphname = colon;
lastChange = "2017-01-13 18:24:18 +0000";
layers = (
{
layerId = "262880E7-CFE1-4BDA-902E-E24798F3240A";
paths = (
{
closed = 1;
nodes = (
"177 350 OFFCURVE",
"196 368 OFFCURVE",
"196 391 CURVE SMOOTH",
"196 413 OFFCURVE",
"177 431 OFFCURVE",
"155 431 CURVE SMOOTH",
"134 431 OFFCURVE",
"115 413 OFFCURVE",
"115 391 CURVE SMOOTH",
"115 368 OFFCURVE",
"133 350 OFFCURVE",
"155 350 CURVE SMOOTH"
);
},
{
closed = 1;
nodes = (
"177 7 OFFCURVE",
"196 25 OFFCURVE",
"196 48 CURVE SMOOTH",
"196 70 OFFCURVE",
"177 88 OFFCURVE",
"155 88 CURVE SMOOTH",
"134 88 OFFCURVE",
"115 70 OFFCURVE",
"115 48 CURVE SMOOTH",
"115 25 OFFCURVE",
"133 7 OFFCURVE",
"155 7 CURVE SMOOTH"
);
}
);
width = 311;
},
{
layerId = "4E2227F3-52E4-4048-A8EE-327B486EF0A4";
paths = (
{
closed = 1;
nodes = (
"223 321 OFFCURVE",
"266 368 OFFCURVE",
"266 426 CURVE SMOOTH",
"266 484 OFFCURVE",
"214 530 OFFCURVE",
"161 530 CURVE SMOOTH",
"108 530 OFFCURVE",
"56 484 OFFCURVE",
"56 426 CURVE SMOOTH",
"56 368 OFFCURVE",
"99 321 OFFCURVE",
"161 321 CURVE SMOOTH"
);
},
{
closed = 1;
nodes = (
"223 0 OFFCURVE",
"266 47 OFFCURVE",
"266 105 CURVE SMOOTH",
"266 163 OFFCURVE",
"214 209 OFFCURVE",
"161 209 CURVE SMOOTH",
"108 209 OFFCURVE",
"56 163 OFFCURVE",
"56 105 CURVE SMOOTH",
"56 47 OFFCURVE",
"99 0 OFFCURVE",
"161 0 CURVE SMOOTH"
);
}
);
width = 318;
}
);
leftKerningGroup = colon;
unicode = 003A;
},
{
glyphname = comma;
lastChange = "2017-01-13 18:24:18 +0000";
layers = (
{
layerId = "262880E7-CFE1-4BDA-902E-E24798F3240A";
paths = (
{
closed = 1;
nodes = (
"102 -66 LINE",
"156 153 LINE",
"134 153 LINE",
"80 -66 LINE"
);
}
);
width = 256;
},
{
layerId = "4E2227F3-52E4-4048-A8EE-327B486EF0A4";
paths = (
{
closed = 1;
nodes = (
"146 -111 LINE",
"209 160 LINE",
"41 160 LINE",
"24 -111 LINE"
);
}
);
width = 233;
}
);
leftKerningGroup = comma;
rightKerningGroup = comma;
unicode = 002C;
},
{
glyphname = exclam;
lastChange = "2017-01-13 18:24:18 +0000";
layers = (
{
layerId = "262880E7-CFE1-4BDA-902E-E24798F3240A";
paths = (
{
closed = 1;
nodes = (
"160 220 LINE",
"160 700 LINE",
"138 700 LINE",
"138 220 LINE"
);
},
{
closed = 1;
nodes = (
"168 5 OFFCURVE",
"187 23 OFFCURVE",
"187 46 CURVE SMOOTH",
"187 68 OFFCURVE",
"168 86 OFFCURVE",
"146 86 CURVE SMOOTH",
"125 86 OFFCURVE",
"106 68 OFFCURVE",
"106 46 CURVE SMOOTH",
"106 23 OFFCURVE",
"124 5 OFFCURVE",
"146 5 CURVE SMOOTH"
);
}
);
width = 297;
},
{
layerId = "4E2227F3-52E4-4048-A8EE-327B486EF0A4";
paths = (
{
closed = 1;
nodes = (
"225 248 LINE",
"245 700 LINE",
"57 700 LINE",
"77 248 LINE"
);
},
{
closed = 1;
nodes = (
"212 0 OFFCURVE",
"255 47 OFFCURVE",
"255 105 CURVE SMOOTH",
"255 163 OFFCURVE",
"203 209 OFFCURVE",
"150 209 CURVE SMOOTH",
"97 209 OFFCURVE",
"45 163 OFFCURVE",
"45 105 CURVE SMOOTH",
"45 47 OFFCURVE",
"88 0 OFFCURVE",
"150 0 CURVE SMOOTH"
);
}
);
width = 302;
}
);
unicode = 0021;
},
{
glyphname = period;
lastChange = "2017-01-13 18:24:18 +0000";
layers = (
{
layerId = "262880E7-CFE1-4BDA-902E-E24798F3240A";
paths = (
{
closed = 1;
nodes = (
"177 7 OFFCURVE",
"196 25 OFFCURVE",
"196 48 CURVE SMOOTH",
"196 70 OFFCURVE",
"177 88 OFFCURVE",
"155 88 CURVE SMOOTH",
"134 88 OFFCURVE",
"115 70 OFFCURVE",
"115 48 CURVE SMOOTH",
"115 25 OFFCURVE",
"133 7 OFFCURVE",
"155 7 CURVE SMOOTH"
);
}
);
width = 313;
},
{
layerId = "4E2227F3-52E4-4048-A8EE-327B486EF0A4";
paths = (
{
closed = 1;
nodes = (
"211 -8 OFFCURVE",
"254 39 OFFCURVE",
"254 97 CURVE SMOOTH",
"254 155 OFFCURVE",
"202 201 OFFCURVE",
"149 201 CURVE SMOOTH",
"96 201 OFFCURVE",
"44 155 OFFCURVE",
"44 97 CURVE SMOOTH",
"44 39 OFFCURVE",
"87 -8 OFFCURVE",
"149 -8 CURVE SMOOTH"
);
}
);
width = 308;
}
);
leftKerningGroup = comma;
rightKerningGroup = comma;
unicode = 002E;
},
{
glyphname = question;
lastChange = "2017-01-13 18:24:18 +0000";
layers = (
{
layerId = "262880E7-CFE1-4BDA-902E-E24798F3240A";
paths = (
{
closed = 1;
nodes = (
"197 185 LINE",
"197 271 LINE",
"197 372 OFFCURVE",
"356 378 OFFCURVE",
"356 546 CURVE SMOOTH",
"356 645 OFFCURVE",
"294 709 OFFCURVE",
"202 709 CURVE SMOOTH",
"109 709 OFFCURVE",
"46 645 OFFCURVE",
"46 550 CURVE SMOOTH",
"46 500 LINE",
"68 500 LINE",
"68 550 LINE SMOOTH",
"68 633 OFFCURVE",
"122 688 OFFCURVE",
"202 688 CURVE SMOOTH",
"281 688 OFFCURVE",
"334 633 OFFCURVE",
"334 549 CURVE SMOOTH",
"334 395 OFFCURVE",
"173 394 OFFCURVE",
"173 271 CURVE",
"173 185 LINE"
);
},
{
closed = 1;
nodes = (
"209 5 OFFCURVE",
"228 23 OFFCURVE",
"228 46 CURVE SMOOTH",
"228 68 OFFCURVE",
"209 86 OFFCURVE",
"187 86 CURVE SMOOTH",
"166 86 OFFCURVE",
"147 68 OFFCURVE",
"147 46 CURVE SMOOTH",
"147 23 OFFCURVE",
"165 5 OFFCURVE",
"187 5 CURVE SMOOTH"
);
}
);
width = 405;
},
{
layerId = "4E2227F3-52E4-4048-A8EE-327B486EF0A4";
paths = (
{
closed = 1;
nodes = (
"321 236 LINE",
"321 252 LINE",
"321 339 OFFCURVE",
"473 338 OFFCURVE",
"473 503 CURVE SMOOTH",
"473 627 OFFCURVE",
"386 710 OFFCURVE",
"249 710 CURVE SMOOTH",
"107 710 OFFCURVE",
"10 620 OFFCURVE",
"10 488 CURVE SMOOTH",
"10 478 LINE",
"198 469 LINE",
"198 488 LINE SMOOTH",
"198 517 OFFCURVE",
"214 539 OFFCURVE",
"244 539 CURVE SMOOTH",
"268 539 OFFCURVE",
"283 522 OFFCURVE",
"283 494 CURVE SMOOTH",
"283 418 OFFCURVE",
"135 410 OFFCURVE",
"135 264 CURVE",
"135 236 LINE"
);
},
{
closed = 1;
nodes = (
"288 -5 OFFCURVE",
"332 38 OFFCURVE",
"332 91 CURVE SMOOTH",
"332 144 OFFCURVE",
"287 187 OFFCURVE",
"236 187 CURVE SMOOTH",
"184 187 OFFCURVE",
"140 144 OFFCURVE",
"140 90 CURVE SMOOTH",
"140 38 OFFCURVE",
"182 -5 OFFCURVE",
"235 -5 CURVE SMOOTH"
);
}
);
width = 483;
}
);
unicode = 003F;
},
{
glyphname = quotedbl;
lastChange = "2017-01-13 18:24:18 +0000";
layers = (
{
layerId = "262880E7-CFE1-4BDA-902E-E24798F3240A";
paths = (
{
closed = 1;
nodes = (
"171 500 LINE",
"174 692 LINE",
"148 692 LINE",
"151 500 LINE"
);
},
{
closed = 1;
nodes = (
"83 500 LINE",
"86 692 LINE",
"60 692 LINE",
"63 500 LINE"
);
}
);
width = 234;
},
{
layerId = "4E2227F3-52E4-4048-A8EE-327B486EF0A4";
paths = (
{
closed = 1;
nodes = (
"380 460 LINE",
"400 700 LINE",
"222 700 LINE",
"242 460 LINE"
);
},
{
closed = 1;
nodes = (
"154 460 LINE",
"174 700 LINE",
"-4 700 LINE",
"16 460 LINE"
);
}
);
width = 396;
}
);
leftKerningGroup = quotedbl;
leftMetricsKey = "=quotesingle";
rightKerningGroup = quotedbl;
rightMetricsKey = "=quotesingle";
unicode = 0022;
},
{
glyphname = quotesingle;
lastChange = "2017-01-13 18:24:18 +0000";
layers = (
{
layerId = "262880E7-CFE1-4BDA-902E-E24798F3240A";
paths = (
{
closed = 1;
nodes = (
"83 507 LINE",
"86 697 LINE",
"60 697 LINE",
"63 507 LINE"
);
}
);
width = 146;
},
{
layerId = "4E2227F3-52E4-4048-A8EE-327B486EF0A4";
paths = (
{
closed = 1;
nodes = (
"164 460 LINE",
"184 700 LINE",
"-4 700 LINE",
"16 460 LINE"
);
}
);
width = 180;
}
);
leftKerningGroup = quotedbl;
leftMetricsKey = "=n-20";
rightKerningGroup = quotedbl;
rightMetricsKey = "=|n-20";
unicode = 0027;
},
{
glyphname = semicolon;
lastChange = "2017-01-13 18:24:18 +0000";
layers = (
{
layerId = "262880E7-CFE1-4BDA-902E-E24798F3240A";
paths = (
{
closed = 1;
nodes = (
"133 -60 LINE",
"168 147 LINE",
"144 147 LINE",
"112 -60 LINE"
);
},
{
closed = 1;
nodes = (
"174 370 OFFCURVE",
"193 388 OFFCURVE",
"193 411 CURVE",
"193 433 OFFCURVE",
"174 451 OFFCURVE",
"152 451 CURVE SMOOTH",
"131 451 OFFCURVE",
"112 433 OFFCURVE",
"112 411 CURVE SMOOTH",
"112 388 OFFCURVE",
"130 370 OFFCURVE",
"152 370 CURVE SMOOTH"
);
}
);
width = 298;
},
{
layerId = "4E2227F3-52E4-4048-A8EE-327B486EF0A4";
paths = (
{
closed = 1;
nodes = (
"154 -111 LINE",
"217 160 LINE",
"49 160 LINE",
"32 -111 LINE"
);
},
{
closed = 1;
nodes = (
"191 291 OFFCURVE",
"234 338 OFFCURVE",
"234 396 CURVE SMOOTH",
"234 454 OFFCURVE",
"182 500 OFFCURVE",
"129 500 CURVE SMOOTH",
"76 500 OFFCURVE",
"24 454 OFFCURVE",
"24 396 CURVE SMOOTH",
"24 338 OFFCURVE",
"67 291 OFFCURVE",
"129 291 CURVE SMOOTH"
);
}
);
width = 258;
}
);
leftKerningGroup = colon;
unicode = 003B;
},
{
glyphname = slash;
lastChange = "2017-01-13 18:24:18 +0000";
layers = (
{
layerId = "262880E7-CFE1-4BDA-902E-E24798F3240A";
paths = (
{
closed = 1;
nodes = (
"22 0 LINE",
"218 700 LINE",
"196 700 LINE",
"0 0 LINE"
);
}
);
width = 218;
},
{
layerId = "4E2227F3-52E4-4048-A8EE-327B486EF0A4";
paths = (
{
closed = 1;
nodes = (
"188 0 LINE",
"442 700 LINE",
"254 700 LINE",
"0 0 LINE"
);
}
);
width = 442;
}
);
unicode = 002F;
},
{
glyphname = bracketleft;
lastChange = "2017-01-13 18:24:18 +0000";
layers = (
{
layerId = "262880E7-CFE1-4BDA-902E-E24798F3240A";
paths = (
{
closed = 1;
nodes = (
"204 -103 LINE",
"204 -82 LINE",
"52 -82 LINE",
"52 735 LINE",
"203 735 LINE",
"203 756 LINE",
"30 756 LINE",
"30 -103 LINE"
);
}
);
width = 344;
},
{
layerId = "4E2227F3-52E4-4048-A8EE-327B486EF0A4";
paths = (
{
closed = 1;
nodes = (
"293 -164 LINE",
"293 6 LINE",
"218 6 LINE",
"218 648 LINE",
"293 648 LINE",
"293 818 LINE",
"30 818 LINE",
"30 -164 LINE"
);
}
);
width = 373;
}
);
unicode = 005B;
},
{
glyphname = parenleft;
lastChange = "2017-01-13 18:24:18 +0000";
layers = (
{
layerId = "262880E7-CFE1-4BDA-902E-E24798F3240A";
paths = (
{
closed = 1;
nodes = (
"111 -113 LINE",
"56 -17 OFFCURVE",
"19 157 OFFCURVE",
"19 322 CURVE SMOOTH",
"19 490 OFFCURVE",
"56 668 OFFCURVE",
"111 766 CURVE",
"90 766 LINE",
"32 667 OFFCURVE",
"-7 489 OFFCURVE",
"-7 320 CURVE SMOOTH",
"-7 156 OFFCURVE",
"31 -17 OFFCURVE",
"87 -113 CURVE"
);
}
);
width = 194;
},
{
layerId = "4E2227F3-52E4-4048-A8EE-327B486EF0A4";
paths = (
{
closed = 1;
nodes = (
"321 -83 LINE",
"275 10 OFFCURVE",
"213 137 OFFCURVE",
"213 337 CURVE SMOOTH",
"213 536 OFFCURVE",
"275 664 OFFCURVE",
"321 756 CURVE",
"135 756 LINE",
"65 665 OFFCURVE",
"3 536 OFFCURVE",
"3 337 CURVE SMOOTH",
"3 137 OFFCURVE",
"65 9 OFFCURVE",
"135 -83 CURVE"
);
}
);
width = 371;
}
);
unicode = 0028;
},
{
glyphname = emdash;
lastChange = "2017-01-13 18:24:18 +0000";
layers = (
{
layerId = "262880E7-CFE1-4BDA-902E-E24798F3240A";
paths = (
{
closed = 1;
nodes = (
"423 251 LINE",
"423 272 LINE",
"23 272 LINE",
"23 251 LINE"
);
}
);
width = 446;
},
{
layerId = "4E2227F3-52E4-4048-A8EE-327B486EF0A4";
paths = (
{
closed = 1;
nodes = (
"419 165 LINE",
"419 325 LINE",
"12 325 LINE",
"12 165 LINE"
);
}
);
width = 431;
}
);
leftKerningGroup = hyphen;
rightKerningGroup = hyphen;
unicode = 2014;
},
{
glyphname = hyphen;
lastChange = "2017-01-14 01:06:27 +0000";
layers = (
{
layerId = "262880E7-CFE1-4BDA-902E-E24798F3240A";
paths = (
{
closed = 1;
nodes = (
"267 251 LINE",
"267 272 LINE",
"22 272 LINE",
"22 251 LINE"
);
}
);
width = 289;
},
{
layerId = "4E2227F3-52E4-4048-A8EE-327B486EF0A4";
paths = (
{
closed = 1;
nodes = (
"299 165 LINE",
"299 325 LINE",
"12 325 LINE",
"12 165 LINE"
);
}
);
width = 311;
}
);
leftKerningGroup = hyphen;
rightKerningGroup = hyphen;
unicode = 002D;
},
{
glyphname = quotedblleft;
lastChange = "2017-01-13 18:24:18 +0000";
layers = (
{
layerId = "262880E7-CFE1-4BDA-902E-E24798F3240A";
paths = (
{
closed = 1;
nodes = (
"94 507 LINE",
"26 697 LINE",
"0 697 LINE",
"74 507 LINE"
);
},
{
closed = 1;
nodes = (
"194 507 LINE",
"126 697 LINE",
"100 697 LINE",
"174 507 LINE"
);
}
);
width = 194;
},
{
layerId = "4E2227F3-52E4-4048-A8EE-327B486EF0A4";
paths = (
{
closed = 1;
nodes = (
"253 460 LINE",
"187 700 LINE",
"0 700 LINE",
"111 460 LINE"
);
},
{
closed = 1;
nodes = (
"423 460 LINE",
"404 700 LINE",
"219 700 LINE",
"293 460 LINE"
);
}
);
width = 423;
}
);
leftMetricsKey = "=quoteleft";
rightMetricsKey = "=quoteleft";
unicode = 201C;
},
{
glyphname = quoteleft;
lastChange = "2017-01-13 18:24:18 +0000";
layers = (
{
layerId = "262880E7-CFE1-4BDA-902E-E24798F3240A";
paths = (
{
closed = 1;
nodes = (
"26 697 LINE",
"0 697 LINE",
"74 507 LINE",
"94 507 LINE"
);
}
);
width = 94;
},
{
layerId = "4E2227F3-52E4-4048-A8EE-327B486EF0A4";
paths = (
{
closed = 1;
nodes = (
"187.96 700 LINE",
"-0.04 700 LINE",
"83.402 460 LINE",
"231.402 460 LINE"
);
}
);
width = 231;
}
);
unicode = 2018;
},
{
glyphname = dollar;
lastChange = "2017-01-13 18:24:18 +0000";
layers = (
{
layerId = "262880E7-CFE1-4BDA-902E-E24798F3240A";
paths = (
{
closed = 1;
nodes = (
"349 -5 OFFCURVE",
"412 50 OFFCURVE",
"412 149 CURVE SMOOTH",
"412 255 OFFCURVE",
"339 307 OFFCURVE",
"257 361 CURVE SMOOTH",
"176 414 OFFCURVE",
"112 457 OFFCURVE",
"112 550 CURVE SMOOTH",
"112 634 OFFCURVE",
"164 684 OFFCURVE",
"248 684 CURVE SMOOTH",
"332 684 OFFCURVE",
"384 635 OFFCURVE",
"384 548 CURVE SMOOTH",
"384 500 LINE",
"406 500 LINE",
"406 550 LINE SMOOTH",
"406 650 OFFCURVE",
"346 705 OFFCURVE",
"248 705 CURVE SMOOTH",
"150 705 OFFCURVE",
"90 649 OFFCURVE",
"90 553 CURVE SMOOTH",
"90 446 OFFCURVE",
"165 394 OFFCURVE",
"243 342 CURVE SMOOTH",
"320 291 OFFCURVE",
"390 248 OFFCURVE",
"390 152 CURVE SMOOTH",
"390 67 OFFCURVE",
"335 15 OFFCURVE",
"250 15 CURVE SMOOTH",
"165 15 OFFCURVE",
"118 68 OFFCURVE",
"118 154 CURVE SMOOTH",
"118 200 LINE",
"96 200 LINE",
"96 150 LINE SMOOTH",
"96 50 OFFCURVE",
"152 -5 OFFCURVE",
"251 -5 CURVE SMOOTH"
);
},
{
closed = 1;
nodes = (
"265 -88 LINE",
"265 2 LINE",
"243 2 LINE",
"243 -88 LINE"
);
},
{
closed = 1;
nodes = (
"258 702 LINE",
"258 792 LINE",
"236 792 LINE",
"236 702 LINE"
);
}
);
width = 502;
},
{
layerId = "4E2227F3-52E4-4048-A8EE-327B486EF0A4";
paths = (
{
closed = 1;
nodes = (
"350 -8 OFFCURVE",
"436 70 OFFCURVE",
"436 187 CURVE SMOOTH",
"436 288 OFFCURVE",
"373 338 OFFCURVE",
"271 412 CURVE SMOOTH",
"208 458 OFFCURVE",
"192 475 OFFCURVE",
"192 508 CURVE SMOOTH",
"192 534 OFFCURVE",
"202 548 OFFCURVE",
"219 548 CURVE SMOOTH",
"235 548 OFFCURVE",
"246 534 OFFCURVE",
"246 514 CURVE SMOOTH",
"246 490 LINE",
"431 490 LINE",
"431 509 LINE SMOOTH",
"431 628 OFFCURVE",
"347 708 OFFCURVE",
"220 708 CURVE SMOOTH",
"91 708 OFFCURVE",
"7 628 OFFCURVE",
"7 510 CURVE SMOOTH",
"7 387 OFFCURVE",
"99 322 OFFCURVE",
"169 272 CURVE SMOOTH",
"235 225 OFFCURVE",
"251 211 OFFCURVE",
"251 186 CURVE SMOOTH",
"251 164 OFFCURVE",
"240 152 OFFCURVE",
"224 152 CURVE SMOOTH",
"208 152 OFFCURVE",
"197 166 OFFCURVE",
"197 188 CURVE SMOOTH",
"197 211 LINE",
"12 211 LINE",
"12 180 LINE SMOOTH",
"12 70 OFFCURVE",
"94 -8 OFFCURVE",
"222 -8 CURVE SMOOTH"
);
},
{
closed = 1;
nodes = (
"279 -68 LINE",
"276 53 LINE",
"163 53 LINE",
"160 -68 LINE"
);
},
{
closed = 1;
nodes = (
"276 657 LINE",
"279 778 LINE",
"162 778 LINE",
"165 657 LINE"
);
}
);
width = 443;
}
);
unicode = 0024;
},
{
glyphname = at;
lastChange = "2017-01-13 18:24:18 +0000";
layers = (
{
components = (
{
name = a.alt;
transform = "{0.6667, 0, 0, 0.6667, 257, 112}";
}
);
layerId = "262880E7-CFE1-4BDA-902E-E24798F3240A";
paths = (
{
closed = 1;
nodes = (
"640 -71 OFFCURVE",
"802 92 OFFCURVE",
"802 290 CURVE SMOOTH",
"802 488 OFFCURVE",
"640 651 OFFCURVE",
"441 651 CURVE SMOOTH",
"242 651 OFFCURVE",
"80 488 OFFCURVE",
"80 290 CURVE SMOOTH",
"80 92 OFFCURVE",
"242 -71 OFFCURVE",
"441 -71 CURVE SMOOTH"
);
},
{
closed = 1;
nodes = (
"254 -50 OFFCURVE",
"102 102 OFFCURVE",
"102 290 CURVE SMOOTH",
"102 478 OFFCURVE",
"254 630 OFFCURVE",
"441 630 CURVE SMOOTH",
"628 630 OFFCURVE",
"780 478 OFFCURVE",
"780 290 CURVE SMOOTH",
"780 102 OFFCURVE",
"628 -50 OFFCURVE",
"441 -50 CURVE SMOOTH"
);
}
);
width = 882;
},
{
components = (
{
name = a.alt;
transform = "{0.5714, 0, 0, 0.5714, 284, 143}";
}
);
layerId = "4E2227F3-52E4-4048-A8EE-327B486EF0A4";
paths = (
{
closed = 1;
nodes = (
"623 -62 OFFCURVE",
"782 96 OFFCURVE",
"782 292 CURVE SMOOTH",
"782 486 OFFCURVE",
"623 644 OFFCURVE",
"429 644 CURVE SMOOTH",
"235 644 OFFCURVE",
"77 486 OFFCURVE",
"77 292 CURVE SMOOTH",
"77 96 OFFCURVE",
"235 -62 OFFCURVE",
"429 -62 CURVE SMOOTH"
);
},
{
closed = 1;
nodes = (
"279 18 OFFCURVE",
"157 141 OFFCURVE",
"157 292 CURVE SMOOTH",
"157 442 OFFCURVE",
"279 564 OFFCURVE",
"429 564 CURVE SMOOTH",
"579 564 OFFCURVE",
"702 442 OFFCURVE",
"702 292 CURVE SMOOTH",
"702 141 OFFCURVE",
"579 18 OFFCURVE",
"429 18 CURVE SMOOTH"
);
}
);
width = 862;
}
);
unicode = 0040;
},
{
glyphname = copyright;
lastChange = "2017-01-14 20:55:16 +0000";
layers = (
{
components = (
{
name = C;
transform = "{0.5, 0, 0, 0.5, 327, 111}";
}
);
layerId = "262880E7-CFE1-4BDA-902E-E24798F3240A";
paths = (
{
closed = 1;
nodes = (
"640 -71 OFFCURVE",
"802 92 OFFCURVE",
"802 290 CURVE SMOOTH",
"802 488 OFFCURVE",
"640 651 OFFCURVE",
"441 651 CURVE SMOOTH",
"242 651 OFFCURVE",
"80 488 OFFCURVE",
"80 290 CURVE SMOOTH",
"80 92 OFFCURVE",
"242 -71 OFFCURVE",
"441 -71 CURVE SMOOTH"
);
},
{
closed = 1;
nodes = (
"254 -50 OFFCURVE",
"102 102 OFFCURVE",
"102 290 CURVE SMOOTH",
"102 478 OFFCURVE",
"254 630 OFFCURVE",
"441 630 CURVE SMOOTH",
"628 630 OFFCURVE",
"780 478 OFFCURVE",
"780 290 CURVE SMOOTH",
"780 102 OFFCURVE",
"628 -50 OFFCURVE",
"441 -50 CURVE SMOOTH"
);
}
);
width = 882;
},
{
components = (
{
name = C;
transform = "{0.5, 0, 0, 0.5, 304, 111}";
}
);
layerId = "4E2227F3-52E4-4048-A8EE-327B486EF0A4";
paths = (
{
closed = 1;
nodes = (
"623 -62 OFFCURVE",
"782 97 OFFCURVE",
"782 292 CURVE SMOOTH",
"782 486 OFFCURVE",
"623 644 OFFCURVE",
"429 644 CURVE SMOOTH",
"235 644 OFFCURVE",
"77 486 OFFCURVE",
"77 292 CURVE SMOOTH",
"77 97 OFFCURVE",
"235 -62 OFFCURVE",
"429 -62 CURVE SMOOTH"
);
},
{
closed = 1;
nodes = (
"279 18 OFFCURVE",
"157 141 OFFCURVE",
"157 292 CURVE SMOOTH",
"157 442 OFFCURVE",
"279 564 OFFCURVE",
"429 564 CURVE SMOOTH",
"579 564 OFFCURVE",
"702 442 OFFCURVE",
"702 292 CURVE SMOOTH",
"702 141 OFFCURVE",
"579 18 OFFCURVE",
"429 18 CURVE SMOOTH"
);
}
);
width = 882;
}
);
unicode = 00A9;
},
